<?xml version="1.0" standalone="no"?>
<!DOCTYPE svg PUBLIC "-//W3C//DTD SVG 1.1//EN" "http://www.w3.org/Graphics/SVG/1.1/DTD/svg11.dtd" >
<svg xmlns="http://www.w3.org/2000/svg">
<metadata></metadata>
<defs>
<font id="barmenoregular" horiz-adv-x="1024" >
<font-face units-per-em="2048" ascent="1638" descent="-410" />
<missing-glyph horiz-adv-x="512" />
<glyph horiz-adv-x="2048" />
<glyph horiz-adv-x="2048" />
<glyph unicode="&#xd;" />
<glyph horiz-adv-x="1366" d="M0 748q4 -12 8 -14.5t25 -2.5h102v-678q0 -16 5 -28.5t27.5 -18.5t57.5 -9t75 -6t78 -4t64 -1q172 0 336 42t293 156q31 27 69 73t71.5 111.5t57 153.5t23.5 199q0 125 -41 256t-134 238.5t-246.5 176t-378.5 68.5q-45 0 -95.5 -3t-94.5 -7t-81 -11t-55.5 -13.5 t-24.5 -16.5t-6 -41v-504h-102q-20 0 -26.5 -4t-6.5 -26v-86zM338 121v616h395q23 0 28 6.5t5 26.5v53q0 31 -4 35q-6 6 -27 6h-397v461q29 4 56.5 7t72.5 3q143 0 261 -40t204 -138q78 -88 110.5 -200.5t32.5 -229.5q0 -137 -37 -249.5t-114.5 -193.5t-196.5 -125t-283 -44 q-66 0 -106 6z" />
<glyph horiz-adv-x="1067" d="M66 526q0 -100 29.5 -198.5t88 -177t147.5 -127t206 -48.5q111 0 196.5 46.5t146 130.5t92.5 204.5t32 268.5q0 129 -20.5 240.5t-52.5 201.5t-72 160.5t-81 120.5l115 36q6 2 14 5.5t8 13.5l-5 13q-5 14 -12 29t-15.5 27.5t-16.5 12.5q-6 0 -18 -4l-137 -45 q-20 25 -47 52.5t-51.5 51t-45 37.5t-30.5 14q-4 0 -23.5 -6t-21.5 -6q-31 -12 -48.5 -18.5t-25.5 -10.5t-10 -7t-2 -7q0 -10 8 -17.5t16 -13.5q18 -16 54 -52t65 -71l-244 -77q-29 -10 -29 -23q0 -2 5.5 -15.5t12.5 -27.5t15 -25.5t15 -11.5q6 0 13 2t15 4l262 88 q47 -59 95.5 -150t76.5 -214q-45 76 -113.5 115.5t-158.5 39.5q-92 0 -174 -40.5t-142.5 -115.5t-96 -178.5t-35.5 -226.5zM256 559q0 190 73.5 302t190.5 112q66 0 118 -35t89 -95.5t57.5 -140.5t22.5 -172q2 -90 -14.5 -168.5t-49 -137t-82 -91.5t-112.5 -33 q-61 0 -114.5 33t-93.5 93.5t-62.5 145.5t-22.5 187z" />
<glyph horiz-adv-x="937" d="M0 633q0 -25 1 -56.5t5 -35.5t10 -4q10 0 23 8l96 63v-573q0 -16 6 -25.5t29 -9.5h704q14 0 23.5 2t13.5 16v80q0 20 -6 28.5t-28 8.5h-539v604l266 174q12 10 16.5 17.5t6.5 23.5v84q0 25 -15 25q-10 0 -30 -14l-244 -160v522q-2 23 -8 30t-29 7h-131q-18 -2 -26.5 -7 t-8.5 -30v-655l-110 -72q-16 -12 -20.5 -21.5t-4.5 -29.5z" />
<glyph horiz-adv-x="425" d="M2 647q0 -8 2 -22.5t19 -14.5q10 0 15 5.5t9 9.5l76 77v-665q0 -27 7 -32t32 -5h104q20 0 29.5 6t9.5 31v858l98 102q6 8 12.5 16.5t9.5 21t3 30.5q0 20 -2 51q-2 16 -13.5 24.5t-33.5 -12.5l-74 -79v485q0 23 -8 28t-31 5h-102q-20 0 -30.5 -5.5t-10.5 -27.5v-678 l-96 -102q-8 -10 -13.5 -17.5t-8.5 -18.5t-3 -28v-43z" />
<glyph horiz-adv-x="1067" d="M80 279q0 -33 24.5 -85.5t79 -102.5t141.5 -86t210 -36q100 0 183 31t143.5 85t93 130t32.5 166q0 98 -34.5 167.5t-84 119t-102.5 80t-92 49.5l-107 49q-57 27 -109 53.5t-90 58t-60.5 73.5t-22.5 102q0 45 16 84.5t46 70.5t72 49.5t93 18.5q49 0 85 -14.5t63.5 -37 t47 -48t33.5 -50.5q16 -29 38 -50t61 -21t63.5 26.5t24.5 67.5q0 39 -29 82t-82 79.5t-128 61.5t-167 25q-98 0 -176 -30t-133 -81t-85 -121.5t-30 -152.5q0 -92 34 -158t80 -111t95 -72.5t80 -41.5l111 -54q59 -27 113.5 -55.5t95.5 -64t65.5 -84t24.5 -113.5 q0 -100 -66.5 -170t-181.5 -70q-63 0 -109.5 21.5t-77 51.5t-49 62.5t-30.5 57.5q-16 33 -39 60.5t-68 27.5q-35 0 -65.5 -25.5t-30.5 -74.5zM231 1837q0 -20 13.5 -34.5t44.5 -37.5q78 -61 123 -105t61 -67q23 -23 32 -30t23 -7q16 0 30.5 11.5t39.5 40.5q23 25 39 41 t34.5 33.5t43 41t67.5 62.5q16 14 25.5 25.5t9.5 29.5q0 14 -8 24.5t-18 10.5t-19.5 -6t-15.5 -10l-166 -109q-23 -16 -37 -24.5t-27 -8.5q-12 0 -27.5 8.5t-31.5 20.5l-172 113q-10 4 -18.5 9t-16.5 5q-10 0 -19.5 -9.5t-9.5 -27.5z" />
<glyph horiz-adv-x="854" d="M76 207q0 -23 16.5 -62t57 -76.5t109.5 -65.5t171 -28q18 0 48 2.5t63.5 9.5t68.5 23.5t68 44.5q47 41 71.5 101.5t24.5 126.5q0 72 -23.5 123t-60.5 86.5t-81 60.5t-85 45l-88 41q-27 12 -57.5 27.5t-56 38t-42 53t-16.5 73.5q0 23 8.5 48.5t26.5 48t48 38t71 15.5 q37 0 62.5 -12.5t44 -28.5t30.5 -35.5t20 -34.5q14 -27 32 -48t59 -21q31 0 53 20.5t22 57.5q0 25 -17 60.5t-55 67t-98.5 55t-148.5 23.5q-84 0 -145.5 -23.5t-101.5 -63.5t-59.5 -91t-19.5 -106q0 -70 24.5 -120t66.5 -88t98.5 -67.5t120.5 -60.5q35 -16 69.5 -34.5 t62 -43.5t46 -58.5t18.5 -80.5q0 -57 -38 -106.5t-120 -49.5q-78 0 -115.5 34t-60.5 69q-16 31 -26 47q-10 14 -28.5 33.5t-53.5 19.5q-31 0 -57.5 -22.5t-26.5 -65.5zM142 1425q0 -16 9 -25t48 -42q72 -57 111.5 -97t70.5 -75q8 -8 18.5 -17.5t26.5 -9.5q14 0 23.5 9.5 t25.5 31.5q37 47 81 88t102 90q18 16 26 26.5t8 27.5q0 16 -9 24t-19 8q-12 0 -35 -18l-150 -103q-10 -8 -24 -16t-31 -8q-16 0 -28.5 6t-24.5 14l-166 107q-8 4 -16.5 9t-16.5 5q-10 0 -20 -10t-10 -25z" />
<glyph horiz-adv-x="1110" d="M0 1425q0 -6 2 -11t12 -23l432 -729v-629q0 -18 6.5 -25.5t26.5 -7.5h133q23 0 32 4t9 29v618l443 740q8 14 10 20t2 14q0 4 -4 12.5t-21 8.5h-114q-14 -2 -19.5 -6t-19.5 -27l-350 -598l-353 602q-10 20 -18 24.5t-31 4.5h-147q-12 0 -21.5 -4t-9.5 -17zM516 1612 q0 -23 11.5 -37t27.5 -14q10 0 19.5 5t17.5 11l217 154q14 12 27.5 29.5t13.5 51.5q0 37 -20.5 58.5t-43.5 21.5q-18 0 -30.5 -9t-22.5 -19l-192 -199q-25 -25 -25 -53z" />
<glyph horiz-adv-x="937" d="M0 -393q0 -37 19.5 -56.5t44 -28.5t48 -10t31.5 -1q82 0 141.5 31.5t102.5 81.5t72.5 111.5t50.5 119.5l418 1146q8 20 9 26.5t1 10.5q0 23 -29 23h-100q-12 -2 -18.5 -8t-14.5 -29l-266 -788l-289 788q-10 25 -16 31t-31 6h-121q-8 0 -22.5 -2t-14.5 -23q0 -4 2 -10 t11 -25l397 -1001q-31 -96 -57.5 -158.5t-53 -99.5t-55.5 -51.5t-61 -14.5q-6 0 -22.5 3.5t-34 6.5t-33 6t-21.5 3q-41 0 -64.5 -26.5t-23.5 -61.5zM446 1219q0 -25 13.5 -36.5t25.5 -11.5q10 0 18.5 5.5t16.5 9.5l199 141q12 10 24.5 26.5t12.5 49.5q0 29 -15.5 51.5 t-40.5 22.5q-16 0 -29.5 -10.5t-23.5 -20.5l-180 -182q-14 -14 -17.5 -25.5t-3.5 -19.5z" />
<glyph horiz-adv-x="1067" d="M135 35q0 -25 9.5 -30t29.5 -5h125q20 0 28.5 5t8.5 30v295q29 -4 54.5 -5t60.5 -1q152 0 269.5 35.5t197.5 113.5q41 41 64.5 82t34.5 80t14 70.5t3 52.5q0 86 -28.5 160.5t-86 132t-145.5 90.5t-205 33q-59 0 -117.5 -10.5t-115.5 -26.5v272q0 27 -8.5 32t-28.5 5h-125 q-23 0 -31 -7t-8 -30v-1374zM336 449v591q29 8 71 15.5t113 7.5q18 0 49 -2t66 -11.5t69.5 -30t63.5 -58.5q55 -72 55 -199q0 -102 -34.5 -164.5t-90 -97.5t-125 -47.5t-139.5 -12.5q-33 0 -54.5 2t-43.5 7z" />
<glyph horiz-adv-x="1067" d="M121 -442q0 -25 11 -32t34 -7h102q23 0 29 10t6 27v493q29 -20 80 -46t141 -26q127 0 217 59.5t148.5 148.5t85 193.5t26.5 196.5q0 96 -25.5 188.5t-78.5 165t-137 118t-201 45.5q-66 0 -131.5 -16.5t-124.5 -45.5v496q0 29 -8 36t-37 7h-98q-25 -2 -32 -10.5t-7 -32.5 v-1968zM303 168v616q0 41 4 75t29 61q25 29 78 42t96 13q88 0 146.5 -39t93 -101.5t49 -139.5t14.5 -152q0 -104 -23.5 -187.5t-65.5 -139.5t-97.5 -86t-118.5 -30q-55 0 -106.5 19.5t-98.5 48.5z" />
<glyph d="M35 20q0 -16 14 -18t33 -2h866q27 0 29 14q0 2 1 14.5t1 26.5v27v18q0 23 -7 27t-28 4h-637l670 1255q8 16 9 24.5t1 12.5q0 16 -14.5 19.5t-36.5 3.5h-807q-25 0 -31 -7t-6 -30q0 -57 1 -69.5t5 -16.5q4 -6 13.5 -7t15.5 -1h592l-668 -1256q-10 -23 -13 -28.5t-3 -10.5z M211 1837q0 -20 13.5 -34.5t43.5 -37.5q78 -61 123 -105t62 -67q23 -23 32 -30t23 -7q16 0 30.5 11.5t39.5 40.5q23 25 39 41t34.5 33.5t43 41t67.5 62.5q16 14 25.5 25.5t9.5 29.5q0 14 -8.5 24.5t-18.5 10.5t-19.5 -6t-15.5 -10l-166 -109q-23 -16 -37 -24.5t-26 -8.5 t-27.5 8.5t-32.5 20.5l-172 113q-10 4 -18 9t-16 5q-10 0 -19.5 -9.5t-9.5 -27.5z" />
<glyph horiz-adv-x="811" d="M43 20q0 -16 11.5 -18t21.5 -2h651q16 0 25.5 3t9.5 24v59q0 20 -10.5 23.5t-20.5 3.5h-450l467 886q10 23 12 28t2 9q0 18 -14.5 21.5t-24.5 3.5h-608q-20 -2 -29.5 -5t-9.5 -26t1 -48.5t7 -29.5q4 -6 31 -6h415l-473 -889q-10 -20 -12 -25t-2 -12zM140 1425 q0 -16 9 -25t48 -42q72 -57 111.5 -97t70.5 -75q8 -8 18.5 -17.5t26.5 -9.5q14 0 23.5 9.5t25.5 31.5q37 47 81 88t102 90q18 16 26 26.5t8 27.5q0 16 -9 24t-19 8q-12 0 -35 -18l-150 -103q-10 -8 -24 -16t-31 -8q-16 0 -28.5 6t-24.5 14l-166 107q-8 4 -16.5 9t-16.5 5 q-10 0 -20 -10t-10 -25z" />
<glyph horiz-adv-x="1622" d="M51 1233q0 -4 5 -19.5t34 -15.5q10 0 79 15.5t157 56.5v-703q0 -18 14 -21t74 -3q14 0 21 4t7 20v852q0 16 -7 26.5t-23 10.5q-14 0 -23.5 -8t-30 -30.5t-43 -42t-50 -36t-64.5 -32t-86 -27.5q-35 -10 -49.5 -17.5t-14.5 -29.5zM375 18q0 -14 10 -16t41 -2q23 0 30 4 t21 31l719 1356q10 20 12 25t2 14q0 12 -8 14t-43 2q-23 0 -31 -7t-18 -30l-723 -1356q-8 -16 -10 -22t-2 -13zM1001 23q0 -14 9.5 -18.5t21.5 -4.5h473q18 0 24.5 5t6.5 26q0 20 -1 45.5t-5 29.5q-6 6 -25 7h-342l236 299q20 27 42.5 57.5t41 65t31 73.5t12.5 82 q0 47 -17.5 89t-48 75t-75 51.5t-99.5 18.5q-63 0 -111.5 -23.5t-81 -60.5t-49 -82t-16.5 -88q0 -39 15.5 -45.5t23.5 -6.5q25 0 33 18.5t14 43.5q12 51 34.5 78.5t45.5 41t42 15.5t26 2q66 0 103.5 -46t37.5 -112q0 -68 -36 -132t-83 -126l-268 -348q-14 -20 -15 -30z" />
<glyph horiz-adv-x="1622" d="M51 1233q0 -2 5 -17.5t34 -15.5q10 0 79 14.5t157 55.5v-701q0 -20 14 -23t74 -3q14 0 21 4t7 22v850q0 16 -7 26.5t-23 10.5q-14 0 -23.5 -8t-30 -30.5t-43 -41t-50 -36t-64.5 -32t-86 -28.5q-35 -10 -49.5 -17.5t-14.5 -29.5zM373 18q0 -14 11 -16t42 -2q23 0 30 5 t21 32l717 1354l13 26t3 13q0 12 -9 14t-44 2q-20 0 -28.5 -7t-20.5 -30l-723 -1356q-8 -16 -10 -22t-2 -13zM979 236q0 -20 12.5 -23.5t20.5 -3.5h303v-189q0 -12 4 -19t20 -7h74q10 2 13.5 6t3.5 20v189h57q35 0 39 4t5 10t1 35q0 27 -16 29h-86v573q0 16 -5.5 34.5 t-38.5 18.5q-20 0 -29 -9t-14 -19l-348 -613q-10 -18 -13 -24t-3 -12zM1092 287l223 420v-420h-223z" />
<glyph horiz-adv-x="681" d="M51 1233q0 -4 5 -19.5t34 -15.5q10 0 79 15.5t157 56.5v-701q0 -20 14 -23t74 -3q14 0 21 4t7 22v850q0 16 -7 26.5t-23 10.5q-14 0 -23.5 -8t-30 -30.5t-43 -42t-50 -36t-64.5 -32t-86 -29.5q-35 -10 -49.5 -16.5t-14.5 -28.5z" />
<glyph horiz-adv-x="1622" d="M55 707q0 -25 16.5 -55.5t48.5 -59.5t81 -48.5t112 -19.5q82 0 137.5 29t88 71t47 91t14.5 88q0 82 -46 150.5t-138 109.5q63 35 100 86t37 117q0 88 -63.5 144t-157.5 56q-59 0 -105.5 -21.5t-78 -53t-48 -69.5t-16.5 -73q0 -33 15.5 -39t21.5 -6q18 0 26.5 14.5 t16.5 36.5q6 12 14 32t24.5 37t41 29.5t61.5 12.5q66 0 96.5 -43t30.5 -86q0 -45 -18.5 -76t-46 -52.5t-60.5 -34.5t-59 -23q-6 -4 -14.5 -9.5t-8.5 -19.5q0 -16 11.5 -21.5t27.5 -9.5q90 -23 152.5 -74t62.5 -143q0 -61 -40 -114.5t-113 -53.5q-37 0 -62.5 12.5t-44 30 t-31 39t-22.5 39.5q-8 12 -19.5 26.5t-33.5 14.5q-23 0 -40.5 -16.5t-17.5 -44.5zM418 18q0 -14 9 -16t44 -2q20 0 27.5 5t21.5 32l719 1354l13 26t3 13q0 12 -12 14t-41 2q-20 0 -29.5 -7t-19.5 -30l-723 -1356q-8 -18 -10 -23t-2 -12zM979 236q0 -20 12.5 -23.5t20.5 -3.5 h303v-189q0 -12 4 -19t20 -7h74q10 2 13.5 6t3.5 20v189h57q35 0 39 4t5 10t1 35q0 27 -16 29h-86v573q0 16 -5.5 34.5t-38.5 18.5q-20 0 -29 -9t-14 -19l-348 -613q-10 -18 -13 -24t-3 -12zM1092 287l223 420v-420h-223z" />
<glyph horiz-adv-x="681" d="M55 707q0 -25 16.5 -55.5t48.5 -59.5t81 -48.5t112 -19.5q82 0 137.5 29t88 71t47 91t14.5 88q0 82 -46 150.5t-138 109.5q63 35 100 86t37 117q0 88 -63.5 144t-157.5 56q-59 0 -105.5 -21.5t-78 -53t-48 -69.5t-16.5 -73q0 -33 15.5 -39t21.5 -6q18 0 26.5 14.5 t16.5 36.5q6 12 14 32t24.5 37t41 29.5t61.5 12.5q66 0 96.5 -43t30.5 -86q0 -45 -18.5 -76t-46 -52.5t-60.5 -34.5t-59 -23q-6 -4 -14.5 -9.5t-8.5 -19.5q0 -16 11.5 -21.5t27.5 -9.5q90 -23 152.5 -74t62.5 -143q0 -61 -40 -114.5t-113 -53.5q-37 0 -62.5 12.5t-44 30 t-31 39t-22.5 39.5q-8 12 -19.5 26.5t-33.5 14.5q-23 0 -40.5 -16.5t-17.5 -44.5z" />
<glyph horiz-adv-x="681" d="M63 565q0 -14 9.5 -18t21.5 -4h473q18 0 24.5 5t6.5 25t-1 46t-5 30q-6 6 -25 6h-342l236 299q20 27 42.5 57.5t41 65.5t31 74t12.5 82q0 47 -17.5 89t-48 75t-75 51t-99.5 18q-63 0 -111.5 -23.5t-81 -60t-49 -82t-16.5 -88.5q0 -39 15.5 -45t25.5 -6q23 0 31 18.5 t14 43.5q12 51 34.5 78.5t46.5 41t43 15.5t26 2q63 0 101 -46t38 -112q0 -68 -36 -132t-83 -126l-268 -348q-14 -20 -15 -31z" />
<glyph horiz-adv-x="468" d="M174 -358h123v716h-123v-716zM174 666h123v716h-123v-716z" />
<glyph d="M0 537h1024v120h-1024v-120z" />
<glyph d="M123 293l86 -86l303 303l303 -303l86 86l-303 303l303 303l-86 86l-303 -303l-303 303l-86 -86l303 -303z" />
<glyph unicode=" "  horiz-adv-x="512" />
<glyph unicode="&#x09;" horiz-adv-x="512" />
<glyph unicode="&#xa0;" horiz-adv-x="512" />
<glyph unicode="!" horiz-adv-x="598" d="M211 115q0 -20 8 -43t24.5 -41.5t41 -30.5t55.5 -12q49 0 88 34t43 87q4 55 -35 95t-96 40q-59 0 -94 -41t-35 -88zM233 1403l54 -907q2 -29 12 -33t55 -4q20 0 28.5 5t10.5 30l56 909q2 33 -9.5 38t-36.5 5h-127q-23 0 -35 -5t-8 -38z" />
<glyph unicode="&#x22;" horiz-adv-x="811" d="M123 1440q0 -8 1 -15.5t1 -17.5l68 -496h38l72 523q0 10 -1 26.5t-9 32.5t-25.5 28.5t-50.5 12.5q-29 0 -61.5 -20.5t-32.5 -73.5zM508 1423q0 -6 2 -16l65 -496h39l72 523q0 10 -1 26.5t-9 32.5t-25.5 28.5t-50.5 12.5q-29 0 -60.5 -20.5t-31.5 -73.5v-17z" />
<glyph unicode="#" horiz-adv-x="1193" d="M2 528h342l-72 -528h117l78 528h207l-74 -528h125l70 528h358v113h-344l27 199h358v116h-342l66 490h-123l-66 -490h-205l68 490h-123l-66 -490h-358v-116h342l-29 -199h-356v-113zM481 641l27 199h207l-27 -199h-207z" />
<glyph unicode="$" d="M57 272q0 -37 27 -85t61 -85q43 -43 89.5 -68.5t90.5 -38.5t82.5 -18.5t65.5 -7.5v-139q0 -18 9.5 -21.5t45.5 -3.5q16 0 18.5 3.5t2.5 19.5v141q31 4 67.5 10.5t76.5 18.5t81 35.5t80 60.5q47 47 80 117t33 162q0 78 -24.5 136t-59.5 101t-73 72t-67 45q-8 4 -33.5 17.5 t-57 28.5t-60.5 30.5t-43 21.5v543q76 -10 111.5 -43t56.5 -65q16 -29 28.5 -48.5t24.5 -32t24.5 -17.5t30.5 -5q29 0 52.5 21.5t23.5 58.5q0 31 -22.5 71t-67.5 74.5t-110.5 61t-151.5 33.5v137q0 18 -3 23t-24 5q-35 0 -42 -3t-7 -23v-139l-55 -5.5t-76 -14.5t-84 -32.5 t-80 -58.5t-69.5 -100.5t-32.5 -159.5q0 -90 30.5 -154.5t85 -114t127 -88t154.5 -79.5v-580q-59 8 -99 25.5t-65.5 41t-42 50t-28.5 53.5q-18 41 -39 68.5t-62 27.5q-29 0 -54.5 -21.5t-25.5 -62.5zM238 1135q0 72 29.5 118.5t68.5 73.5t74.5 33t62.5 10v-510 q-43 23 -85 46.5t-75.5 54t-54 73.5t-20.5 101zM549 90v543q29 -12 72 -35t82.5 -57.5t67.5 -86t28 -122.5q0 -27 -7.5 -66t-34 -75.5t-75.5 -65.5t-133 -35z" />
<glyph unicode="%" horiz-adv-x="1622" d="M68 991q0 -115 21.5 -203t58 -146t86 -88t106.5 -30q70 0 122 39t86 104.5t50 153t16 183.5q0 104 -19.5 189t-54 145.5t-84.5 94t-112 33.5q-66 0 -117 -33.5t-87 -96t-54 -150.5t-18 -195zM195 1008q0 49 5 114.5t20.5 126t44 101.5t75.5 41t75.5 -38t44 -95.5 t21.5 -126.5t6 -130q0 -39 -4 -106.5t-18 -131t-44 -110.5t-81 -47q-45 0 -73.5 42t-45 103.5t-21.5 131t-5 125.5zM393 18q0 -14 9.5 -16t43.5 -2q20 0 28.5 5t21.5 30l716 1358q10 18 13.5 24t3.5 13q0 14 -12.5 16t-40.5 2q-20 0 -28.5 -7t-21.5 -30l-720 -1358 q-8 -16 -10.5 -22t-2.5 -13zM1006 449q0 -115 20.5 -202t57 -146.5t87 -89t107.5 -29.5q72 0 123 38.5t85 105.5t50 154t16 181q0 104 -19.5 189t-54 145.5t-85 94.5t-111.5 34q-66 0 -117 -34t-87 -96.5t-54 -150.5t-18 -194zM1133 467q0 49 5 114.5t20.5 125t44 100.5 t75.5 41t75.5 -38t44 -95.5t21.5 -126t6 -129.5q0 -39 -4 -106.5t-18 -131t-44 -111t-81 -47.5q-45 0 -73.5 42t-45 103.5t-21.5 131.5t-5 127z" />
<glyph unicode="&#x26;" horiz-adv-x="1280" d="M45 322q0 -68 25.5 -131.5t72.5 -112.5t113 -79t147 -30q86 0 153 32t117 79t88 105.5t68 109.5l195 -248q14 -18 22.5 -27.5t16.5 -13.5t18.5 -5t28.5 -1h102q8 0 23.5 2t15.5 23q0 10 -22 43l-303 387q4 4 12 15t17.5 23.5t17.5 22.5t10 14q25 29 47.5 45.5t45 25.5 t46 11t49.5 4q43 4 73 21.5t30 60.5q0 25 -18.5 51.5t-71.5 26.5q-49 0 -94.5 -21.5t-86 -57t-75.5 -79t-64 -86.5l-213 273q49 29 107.5 64.5t107.5 82.5t82 107.5t33 136.5q0 55 -19.5 105.5t-61.5 89.5t-104.5 62.5t-148.5 23.5q-184 0 -278.5 -90.5t-94.5 -227.5 q0 -39 7.5 -75.5t27 -78.5t51 -92.5t80.5 -117.5q-59 -35 -104 -61.5t-80 -51.5t-61.5 -48.5t-51.5 -53.5q-47 -57 -72.5 -125t-25.5 -133zM223 381q0 61 24.5 111.5t64.5 90.5t89.5 72.5t98.5 61.5l266 -340q-25 -43 -54.5 -87t-65.5 -81t-81 -59.5t-104 -22.5 q-57 0 -101.5 22.5t-75 59.5t-46 82t-15.5 90zM442 1180q0 53 19.5 89t49.5 58.5t63.5 32.5t62.5 10q82 0 136 -55t54 -139q0 -57 -25.5 -103.5t-61 -82.5t-76.5 -62.5t-72 -44.5q-39 49 -66.5 88t-46 72.5t-28 65.5t-9.5 71z" />
<glyph unicode="'" horiz-adv-x="425" d="M123 1440q0 -8 1 -15.5t1 -17.5l68 -496h38l72 523q0 10 -1 26.5t-9 32.5t-25.5 28.5t-50.5 12.5q-29 0 -61.5 -20.5t-32.5 -73.5z" />
<glyph unicode="(" horiz-adv-x="598" d="M100 739q0 -213 56.5 -414.5t179.5 -375.5q4 -4 30.5 -39t61.5 -76t71 -74.5t56 -33.5q14 0 23.5 10t9.5 24q0 10 -5 20.5t-24 33.5q-145 199 -203.5 432t-58.5 479q0 113 15.5 243t43.5 242q45 168 106.5 276.5t100.5 155.5q8 10 13.5 19.5t5.5 24.5q0 16 -10.5 25 t-22.5 9q-20 0 -58 -35.5t-76 -79.5t-65.5 -83t-32.5 -43q-113 -164 -165 -352.5t-52 -387.5z" />
<glyph unicode=")" horiz-adv-x="598" d="M10 1686q0 -10 5 -19.5t24 -34.5q145 -197 203.5 -431t58.5 -478q0 -180 -29.5 -354t-101.5 -336q-25 -57 -59.5 -118t-75.5 -112q-6 -8 -12.5 -17t-6.5 -24q0 -16 10.5 -26t22.5 -10q14 0 37 17t47.5 43t50 56.5t46 58t35 47t16.5 21.5q113 162 165 351.5t52 388.5 q0 211 -56.5 412.5t-179.5 375.5q-2 4 -29.5 40t-62.5 77t-71 73.5t-56 32.5q-33 0 -33 -34z" />
<glyph unicode="*" horiz-adv-x="641" d="M41 1540q0 -49 25.5 -62.5t60.5 -21.5q12 -2 31.5 -7t38 -14.5t32 -20.5t13.5 -25q0 -18 -14.5 -30.5t-35 -20t-41 -12.5t-32.5 -7q-10 -2 -23.5 -4t-25 -10.5t-19.5 -22.5t-8 -39t10 -48.5t35 -23.5q18 0 32.5 15.5t43.5 52.5q35 45 60.5 58.5t37.5 13.5 q20 0 24.5 -19.5t4.5 -34.5q0 -16 -2 -30t-6 -39q-4 -27 -7.5 -43.5t-4.5 -26.5t-2 -16t-1 -15q0 -39 15.5 -57t35.5 -18q27 0 39.5 20.5t12.5 52.5q0 10 -3 34t-8.5 50.5t-8.5 51t-3 32.5q0 20 6 40t25 20q23 0 50.5 -21.5t49.5 -50.5q37 -45 49.5 -56t28.5 -11 q10 0 25.5 11t15.5 48q0 51 -25.5 65.5t-76.5 28.5q-57 16 -77 31.5t-20 32.5q0 14 10.5 24t26 18.5t31.5 14.5t27 8q55 14 79.5 28.5t24.5 61.5q0 23 -10 42.5t-35 19.5q-8 0 -14.5 -2t-14.5 -9.5t-18 -20.5t-27 -36q-6 -6 -16 -18.5t-23.5 -24.5t-29 -20.5t-31.5 -8.5 q-23 0 -26 21.5t-3 28.5q0 10 3 35.5t6 54t6.5 54.5t3.5 36q0 51 -19.5 62.5t-30.5 11.5q-27 0 -39 -21.5t-12 -50.5q0 -8 1 -15.5t2 -17.5t4.5 -25.5t9.5 -42.5q4 -23 6 -40t2 -46q0 -14 -5 -29.5t-22 -15.5q-10 0 -37.5 10.5t-68.5 65.5q-31 43 -41 54.5t-29 11.5 q-16 0 -32.5 -16.5t-16.5 -53.5z" />
<glyph unicode="+" d="M61 537h390v-390h122v390h388v122h-388v383h-122v-383h-390v-122z" />
<glyph unicode="," horiz-adv-x="512" d="M125 141q0 -39 20 -59.5t43 -36.5q33 -25 39 -41t6 -29q0 -35 -21.5 -67.5t-39.5 -57.5q-31 -35 -38 -45t-7 -22q0 -33 37 -33q18 0 55 23.5t74 65.5t64.5 97.5t27.5 118.5q0 86 -42 135.5t-105 49.5q-43 0 -78 -26t-35 -73z" />
<glyph unicode="-" horiz-adv-x="641" d="M117 535q0 -23 7 -30t28 -7h337q31 0 33 22v92q0 20 -8 25.5t-29 5.5h-333q-10 0 -19.5 -3t-13.5 -17q0 -2 -1 -12.5t-1 -24.5v-27v-24z" />
<glyph unicode="." horiz-adv-x="512" d="M127 115q0 -59 39 -93t88 -34t87 34t40 87q2 57 -36 94t-91 37q-20 0 -43 -7.5t-41 -22.5t-30.5 -39t-12.5 -56z" />
<glyph unicode="/" horiz-adv-x="894" d="M23 -229q0 -12 14 -21q6 -2 16 -6t51 -20q12 -4 21 -5q14 0 22 25l721 1909q2 4 4 10t2 12q0 14 -30 25q-23 10 -45.5 17t-28.5 7q-10 0 -14 -8t-11 -26l-718 -1897q-4 -12 -4 -22z" />
<glyph unicode="0" horiz-adv-x="1110" d="M119 717q0 -182 33.5 -322.5t92 -234.5t137.5 -142.5t171 -48.5q111 0 193.5 61.5t137 167t81 244.5t24.5 293q-2 164 -31.5 300t-85 234.5t-134.5 153t-179 54.5q-104 0 -185 -54.5t-138.5 -155t-87 -239.5t-29.5 -311zM311 743q0 51 3 117t13.5 135.5t27 136t43 119 t65.5 84t90 31.5q55 0 94 -31.5t65.5 -85t43 -120t26 -137t11.5 -138.5t2 -121q0 -45 -2 -110.5t-10.5 -136t-24 -142.5t-43 -128t-66.5 -91t-96 -35q-72 0 -116 58.5t-70 138.5q-29 94 -42.5 208.5t-13.5 247.5z" />
<glyph unicode="1" horiz-adv-x="1110" d="M92 1108q0 -2 1 -10t6 -16.5t17.5 -15.5t35.5 -7q4 0 34.5 4t81.5 16.5t120 36t149 62.5v-1145q0 -20 7 -26.5t29 -6.5h103q18 0 27.5 4t9.5 27v1374q0 12 -6.5 33.5t-36.5 21.5q-23 0 -37.5 -12t-42.5 -45l-48 -48t-77 -61.5t-113.5 -63.5t-156.5 -54q-57 -16 -80 -26.5 t-23 -41.5z" />
<glyph unicode="2" horiz-adv-x="1110" d="M111 31q0 -25 17 -28t28 -3h766q35 0 36 23q0 2 1.5 14t1.5 29v34v33q0 25 -9.5 31t-33.5 6h-566l389 487q35 45 71 95.5t64.5 105.5t48 117.5t19.5 130.5q0 76 -26.5 143.5t-76.5 117.5t-120 80t-156 30q-102 0 -180 -38t-129 -97.5t-76.5 -130t-25.5 -138.5 q0 -27 8 -42t19.5 -22.5t20.5 -8.5t11 -1q35 0 46 27t20 68q29 119 99.5 172t147.5 53q53 0 95.5 -20.5t73 -55.5t47 -82t16.5 -102q0 -102 -52.5 -201.5t-142.5 -218.5l-430 -563q-23 -29 -22 -45z" />
<glyph unicode="3" horiz-adv-x="1110" d="M98 258q0 -37 26 -86t77 -94t128 -77t181 -32q135 0 223 47t140.5 115t73 144.5t20.5 136.5q0 37 -9.5 90t-41 110.5t-91 115.5t-161.5 103q104 59 165.5 139.5t61.5 190.5q0 68 -26.5 126.5t-74 101.5t-112 66.5t-137.5 23.5q-92 0 -165 -32t-123 -82t-78 -110.5 t-28 -119.5q0 -27 11.5 -47.5t40.5 -20.5t41 21.5t26 56.5q8 23 22.5 53.5t40 60t66.5 50t103 20.5q53 0 93 -19.5t66.5 -51t39 -69.5t12.5 -75q0 -74 -32 -125t-77 -86t-93 -55.5t-81 -32.5q-23 -8 -37 -17.5t-14 -31.5q0 -23 15.5 -30t64.5 -19q123 -31 190.5 -85 t98 -108.5t35.5 -98.5t5 -56q0 -51 -17 -101.5t-49 -90.5t-79 -63.5t-109 -23.5q-59 0 -101 20.5t-72.5 50t-51 64.5t-35.5 64q-12 20 -30.5 41.5t-53.5 21.5t-61.5 -26.5t-26.5 -67.5z" />
<glyph unicode="4" horiz-adv-x="1110" d="M74 373q0 -29 18.5 -33t28.5 -4h493v-316q0 -23 7.5 -26.5t27.5 -5.5h105q23 0 28.5 6t5.5 29v313h127q23 0 31 4t8 29q0 55 -5 68.5t-34 13.5h-127v929q0 12 -1 26.5t-7 27t-18 20.5t-35 8q-29 0 -41 -15t-20 -28l-566 -987q-16 -27 -21 -37t-5 -22zM240 451l374 706 v-706h-374z" />
<glyph unicode="5" horiz-adv-x="1110" d="M129 252q0 -47 28.5 -97.5t82 -91t128 -67.5t167.5 -27q100 0 184 33t144.5 93.5t94 144.5t33.5 186t-32.5 185t-89 140.5t-133.5 88t-165 30.5q-80 0 -147.5 -20.5t-108.5 -36.5l35 463h516q29 0 36 7t9 24v102q0 25 -12 32t-35 7h-577q-31 0 -41 -10.5t-15 -38.5 l-49 -680q-2 -27 1 -48.5t30 -21.5q4 0 13.5 4t21.5 8.5t22.5 9.5t16.5 7q61 27 114.5 36t87.5 9q72 0 131.5 -27.5t101.5 -74t64.5 -107.5t22.5 -129t-20.5 -122t-56.5 -92t-85 -58.5t-104 -20.5q-53 0 -94 19.5t-70 47t-48.5 57.5t-29.5 50q-16 29 -34.5 52.5t-53.5 23.5 q-25 0 -54.5 -18.5t-29.5 -71.5z" />
<glyph unicode="6" horiz-adv-x="1110" d="M123 528q0 -131 31.5 -234.5t91 -176t143.5 -110.5t189 -38q100 0 178 35t131 94.5t80.5 138t27.5 166.5q0 98 -29.5 174t-78.5 126.5t-114.5 77t-139.5 26.5q-57 0 -106.5 -13.5t-88.5 -32t-70 -39t-51 -36.5q8 47 22.5 115.5t49.5 147.5t96.5 161t159.5 156 q31 25 57.5 41t53 28.5t55.5 23.5t66 23q18 6 36.5 17.5t18.5 34.5q0 43 -53 43q-14 0 -65.5 -10.5t-123.5 -39t-154.5 -83t-162.5 -140.5q-127 -139 -188.5 -314t-61.5 -362zM307 582q35 29 94.5 62.5t147.5 33.5q80 0 132 -33t83 -81t43 -101t12 -96q0 -55 -15.5 -106.5 t-45 -89.5t-73.5 -60.5t-101 -22.5q-45 0 -96.5 21.5t-92.5 77t-66.5 150.5t-21.5 245z" />
<glyph unicode="7" horiz-adv-x="1110" d="M154 1317q0 -25 7 -32t29 -7h635l-518 -1202q-10 -27 -13 -34t-3 -17q0 -18 13 -21.5t26 -3.5h129q18 0 28.5 2t16.5 10t11 24.5t11 43.5q23 86 61 209t90 270.5t114.5 310t130.5 326.5q14 35 33.5 83t34 83t14.5 49q0 27 -19.5 31t-36.5 4h-758q-33 0 -34 -23 q-2 -4 -2 -43v-63z" />
<glyph unicode="8" horiz-adv-x="1110" d="M119 342q0 -76 27.5 -143.5t81 -118.5t131 -81t180.5 -30q98 0 182 30t143.5 83t93 125t33.5 155q0 84 -27.5 148.5t-73.5 115t-105.5 92.5t-120.5 81q43 29 90 61.5t86 76.5t64.5 100.5t25.5 129.5q0 78 -28 134.5t-68 91.5q-6 6 -24.5 20t-51.5 28.5t-79 26t-112 11.5 q-25 0 -60.5 -2t-76.5 -13.5t-83 -33t-79 -60.5q-45 -45 -67.5 -105.5t-22.5 -125.5q0 -80 26.5 -140.5t64.5 -105.5t82 -78t77 -57q-61 -39 -116.5 -81t-98.5 -91t-68.5 -108.5t-25.5 -135.5zM289 377q0 55 14 96t43 77t72 69.5t98 76.5q8 -6 26.5 -18t39 -26.5t39 -27 t24.5 -16.5q98 -72 133 -139.5t35 -136.5q0 -49 -17.5 -93t-51 -77t-80 -51.5t-105.5 -18.5q-70 0 -121 24.5t-83.5 65.5t-49 92.5t-16.5 102.5zM342 1167q0 47 17.5 84t46 62.5t66.5 39t81 13.5q51 0 91 -18.5t68.5 -49t44 -71.5t15.5 -86q0 -63 -23.5 -111.5t-55 -82.5 t-64.5 -55.5t-49 -31.5q-43 25 -86 55.5t-77 68.5t-54.5 83t-20.5 100z" />
<glyph unicode="9" horiz-adv-x="1110" d="M117 1053q0 -104 31.5 -182t83 -128.5t116 -75t131.5 -24.5q102 0 173 41t130 84q-8 -104 -45 -210.5t-101.5 -201t-156.5 -169t-213 -115.5q-51 -16 -69.5 -26.5t-18.5 -35.5q0 -29 19.5 -35t31.5 -6q41 0 112 20.5t154 66.5t169 119t156.5 177.5t114.5 242.5t44 314 q0 131 -29.5 236.5t-87 179.5t-140.5 113t-190 39q-98 0 -174.5 -32t-130 -89.5t-82 -135t-28.5 -167.5zM295 1083q0 125 64.5 203t166.5 78q86 0 138.5 -52t82 -128t39 -162t5.5 -152q-12 -8 -33 -24.5t-50.5 -32.5t-68.5 -27.5t-86 -11.5q-66 0 -114 27.5t-80.5 72 t-48 99.5t-15.5 110z" />
<glyph unicode=":" horiz-adv-x="598" d="M211 115q0 -59 40 -93t89 -34q53 0 91 34t40 87q0 57 -38 94t-91 37q-20 0 -44 -7.5t-43 -22.5t-31.5 -39t-12.5 -56zM211 649q0 -59 41 -93t88 -34q51 0 90 34t41 89q0 55 -38 93t-91 38q-20 0 -44 -8t-43 -23.5t-31.5 -39t-12.5 -56.5z" />
<glyph unicode=";" horiz-adv-x="598" d="M211 141q0 -39 19 -59.5t42 -36.5q35 -27 40 -43t5 -27q0 -35 -22.5 -69.5t-38.5 -55.5q-29 -35 -36 -45t-7 -24q0 -12 9 -22.5t26 -10.5q18 0 55 24.5t73 65.5t62.5 97.5t26.5 119.5q0 86 -41 135.5t-102 49.5q-41 0 -76 -26t-35 -73zM213 649q0 -59 40 -93t89 -34 q47 0 87 33t42 90q2 55 -37 93t-92 38q-20 0 -43 -7t-42 -22.5t-31.5 -40t-12.5 -57.5z" />
<glyph unicode="&#x3c;" d="M0 653l1024 -514v131l-889 455l889 451v131l-1024 -510v-144z" />
<glyph unicode="=" d="M0 354h1024v121h-1024v-121zM0 715h1024v121h-1024v-121z" />
<glyph unicode="&#x3e;" d="M0 139l1024 514v144l-1024 510v-131l889 -451l-889 -455v-131z" />
<glyph unicode="?" horiz-adv-x="854" d="M70 1206q0 -55 31.5 -76.5t56.5 -21.5q47 0 64.5 33t27.5 71q4 16 13 42t27.5 49.5t49.5 41t78 17.5q49 0 81.5 -18.5t54 -48t31 -63.5t9.5 -65q0 -51 -15.5 -89t-42 -69.5t-61.5 -58t-74 -53.5q-18 -14 -28.5 -23.5t-15.5 -19.5t-6 -22.5t-1 -30.5l25 -301q4 -29 12 -34 t47 -5q31 0 36 13t5 56q2 84 8 138.5t23.5 97.5t48.5 81t80 85q25 23 50.5 48.5t47 56t34.5 69.5t13 86q0 53 -21.5 104.5t-65.5 91t-108.5 64.5t-150.5 25q-92 0 -160.5 -25t-113.5 -63.5t-67.5 -87t-22.5 -95.5zM297 115q0 -20 8 -43t24.5 -41.5t39 -30.5t53.5 -12 q51 0 89 34t42 87q4 55 -35 95t-94 40q-57 0 -92 -41t-35 -88z" />
<glyph unicode="@" horiz-adv-x="1835" d="M139 479q0 -197 72 -335t185.5 -227t252.5 -130t277 -41q109 0 206 22.5t180 56.5t148.5 75t110.5 77q29 23 53.5 46.5t48.5 46.5l-55 65q-51 -49 -102.5 -90t-135.5 -88q-123 -66 -234.5 -93.5t-217.5 -27.5q-150 0 -278 44t-220 127t-144.5 201t-52.5 265q0 180 67 343 t181.5 286t267 194.5t326.5 71.5q125 0 222.5 -36t165 -102.5t102 -157.5t34.5 -202q0 -131 -35.5 -244.5t-87 -198.5t-108.5 -133t-100 -48q-6 0 -18.5 3t-25 14t-21.5 31.5t-9 57.5q0 31 5 73t14.5 89t19.5 97.5t20 97.5l68 299h-121l-35 -148q-35 92 -93 143.5t-150 51.5 q-84 0 -161 -47t-136.5 -127t-95 -184.5t-35.5 -219.5q0 -100 27.5 -164.5t67.5 -100.5t85 -49t78 -13q61 0 109 18t85 46t65.5 61.5t51.5 62.5q0 -23 1 -46.5t9 -47.5q2 -8 10.5 -23.5t25.5 -32t45 -29t69 -12.5q92 0 177 60.5t150.5 162t104.5 231.5t39 269q0 137 -43 246 t-123 184.5t-192.5 116.5t-252.5 41q-205 0 -379 -82t-298.5 -219t-195.5 -313t-71 -365zM633 485q0 70 20.5 151t59.5 149.5t96 114.5t133 46q27 0 58.5 -11t59 -39t46 -72.5t16.5 -112.5q-2 -90 -28.5 -172t-68.5 -143.5t-97.5 -98.5t-114.5 -37q-20 0 -51 7t-59.5 31 t-49 69t-20.5 118z" />
<glyph unicode="A" horiz-adv-x="1236" d="M0 18q0 -14 11.5 -16t21.5 -2h96q20 0 27.5 4t17.5 29l199 536h440l203 -538q10 -23 17 -27t34 -4h141q12 0 20.5 2t8.5 16q0 8 -2 15.5t-6 17.5l-533 1368q-8 16 -13 20.5t-15 6.5h-88q-16 0 -23.5 -5t-15.5 -26l-531 -1364q0 -4 -5 -17.5t-5 -15.5zM416 686l178 490 l176 -490h-354z" />
<glyph unicode="B" horiz-adv-x="1193" d="M135 82q0 -37 5 -49.5t28 -18.5q27 -10 113 -18t190 -8q39 0 100.5 2t131 13t141 34.5t130 68t94.5 112t36 165.5q0 137 -79 239.5t-239 141.5q-12 4 -23 5t-24 5q12 4 24.5 9t22.5 12q37 18 77 45.5t72 66.5t53.5 90.5t21.5 114.5q0 78 -35 147.5t-113 118.5 q-84 51 -189.5 65.5t-193.5 14.5q-35 0 -82 -2t-92 -5t-82 -8t-55 -11q-20 -6 -26.5 -17.5t-6.5 -38.5v-1294zM334 119v583q37 2 64.5 3.5t68.5 1.5q43 0 90 -3.5t93 -13.5t89 -32.5t78 -63.5q23 -25 48.5 -75t25.5 -130q0 -76 -30 -129t-82 -87t-122.5 -49t-152.5 -15 q-55 0 -98.5 3t-71.5 7zM334 811v518q33 4 68.5 7t76.5 3q25 0 78 -4t108.5 -28.5t96.5 -78.5t41 -153q0 -27 -9.5 -68.5t-40 -81.5t-90 -72t-157.5 -40q-45 -4 -86 -4q-39 0 -86 2z" />
<glyph unicode="C" horiz-adv-x="1236" d="M72 733q0 -150 42 -288t125 -244.5t207.5 -169t292.5 -62.5q100 0 181 25.5t139.5 60.5t90.5 74t32 66q0 23 -13.5 36t-31.5 13q-16 0 -29.5 -8.5t-40.5 -24.5q-68 -45 -137.5 -69.5t-149.5 -24.5q-111 0 -202 50t-156.5 138t-101 210t-35.5 263q0 133 33.5 238.5 t91 180.5t135.5 115t166 40q72 0 123 -22.5t87.5 -55.5t60.5 -67.5t38 -57.5q23 -35 46.5 -44t43.5 -9q37 0 65.5 25.5t28.5 68.5q0 41 -31.5 90t-92 93t-148.5 74t-203 30q-178 0 -303 -68t-204 -174.5t-114.5 -238.5t-35.5 -263z" />
<glyph unicode="D" horiz-adv-x="1366" d="M135 53q0 -16 5 -28.5t27.5 -18.5t57.5 -9t75 -6t78 -4t64 -1q172 0 336 42t293 156q31 27 69 73t71.5 111.5t57 153.5t23.5 199q0 125 -41 256t-134 238.5t-246.5 176t-378.5 68.5q-45 0 -95.5 -3t-94.5 -7t-81 -11t-55 -14q-16 -4 -23.5 -14t-7.5 -43v-1315zM338 121 v1204q29 4 56.5 7t72.5 3q143 0 261 -40t204 -138q78 -88 110.5 -200.5t32.5 -229.5q0 -137 -37 -249.5t-114.5 -193.5t-196.5 -125t-283 -44q-66 0 -106 6z" />
<glyph unicode="E" horiz-adv-x="980" d="M135 37q0 -27 9.5 -32t31.5 -5h713q18 0 28.5 5t10.5 28v65q0 25 -9.5 29t-29.5 4h-553v561h467q16 0 24.5 3t12.5 16q2 4 2 30v50q0 23 -11.5 26.5t-27.5 3.5h-467v494h553q35 0 37 22q2 4 2 31v47q0 23 -11.5 27t-27.5 4h-713q-27 0 -34 -11.5t-7 -37.5v-1360z" />
<glyph unicode="F" horiz-adv-x="937" d="M135 37q0 -29 9.5 -33t33.5 -4h117q23 0 32 5t9 34v653h457q18 0 26 3t10 20q2 4 2 28v43q0 25 -8 30t-30 5h-457v494h543q27 -2 31.5 7t4.5 19q2 6 3 31v47q0 20 -8.5 23.5t-30.5 5.5h-707q-23 -2 -30 -11.5t-7 -35.5v-1364z" />
<glyph unicode="G" horiz-adv-x="1366" d="M74 723q0 -150 41 -286t128 -240.5t221 -166t320 -61.5q168 0 285 49.5t168 114.5q10 12 14 21.5t7.5 20.5t4.5 27.5t1 43.5v430q0 23 -4.5 34t-32.5 9h-439q-16 0 -25 -2t-13 -17v-63q0 -29 7 -34t31 -5h279v-301q0 -49 -7 -83t-48 -60q-39 -27 -96.5 -39.5 t-114.5 -12.5q-123 0 -217.5 51.5t-159 139.5t-98 206.5t-33.5 256.5q0 152 39 263t102.5 185t145.5 110t168 36q70 0 120 -18.5t85.5 -46.5t60 -57.5t39.5 -51.5q33 -49 56.5 -76t64.5 -27q35 0 64.5 24.5t29.5 71.5q0 37 -33 90.5t-97.5 101.5t-160.5 82t-223 34 q-154 0 -279 -55.5t-214 -156t-138 -238.5t-49 -304z" />
<glyph unicode="H" horiz-adv-x="1280" d="M137 39q0 -27 8.5 -33t28.5 -6h125q23 0 31 5t8 34v653h606v-653q0 -25 6 -32t31 -7h125q20 0 29.5 4t9.5 29v1378q0 27 -8.5 31t-30.5 4h-125h-9q-21 0 -24 -8q-4 -10 -4 -33v-584h-606v590q0 25 -8 31q-6 4 -20 4h-11h-125q-23 0 -30 -7t-7 -28v-1372z" />
<glyph unicode="I" horiz-adv-x="468" d="M133 41q0 -29 10.5 -35t28.5 -6h123q23 0 32 6t9 35v1368q0 25 -9.5 31t-31.5 6h-123h-8q-17 0 -23 -7q-8 -9 -8 -34v-1364z" />
<glyph unicode="J" horiz-adv-x="468" d="M-227 -436q0 -27 19.5 -40t47.5 -13q10 0 46 7t86.5 30.5t107.5 65.5t110.5 111.5t81 139t42 134t17.5 122t3 100.5v1184q0 29 -8.5 35t-30.5 6h-131q-20 0 -26.5 -7t-6.5 -30v-1245q-2 -45 -6 -102.5t-20.5 -119t-48 -124t-91.5 -117.5q-37 -35 -68.5 -52.5t-76.5 -37.5 q-16 -6 -31.5 -15.5t-15.5 -31.5z" />
<glyph unicode="K" horiz-adv-x="1110" d="M135 41q0 -29 9.5 -35t31.5 -6h117q18 0 28.5 4t10.5 27v729l520 -731q16 -23 25.5 -26t37.5 -3h162q27 0 27 23q0 10 -4 16l-8 12l-555 756l454 577q10 16 15.5 22.5t5.5 16.5q0 12 -9.5 17.5t-21.5 5.5h-113q-16 -4 -25 -11.5t-26 -29.5l-485 -606v608q0 25 -6 33 q-5 6 -23 6h-10h-119q-23 0 -31 -7t-8 -34v-1364z" />
<glyph unicode="L" horiz-adv-x="937" d="M135 35q0 -16 6 -25.5t29 -9.5h704q14 0 23.5 2t13.5 16v80q0 20 -6 28.5t-28 8.5h-539v1276q-2 23 -8 30t-29 7h-131q-18 -2 -26.5 -7t-8.5 -30v-1376z" />
<glyph unicode="M" horiz-adv-x="1622" d="M135 39q0 -20 3 -27.5t18 -11.5h100q18 0 27.5 5t9.5 32v1108l459 -1106q12 -29 19 -38t26 -9q16 0 22 7t21 40l452 1106v-1106q0 -27 6.5 -33t30.5 -6h115q25 0 32 6t9 29v1376q0 27 -9.5 31t-31.5 4h-141q-27 0 -34 -6t-20 -35l-434 -1061l-455 1063q-10 27 -18 33 t-31 6h-139q-23 0 -30 -8t-7 -31v-1368z" />
<glyph unicode="N" horiz-adv-x="1409" d="M137 39q0 -23 6.5 -31t28.5 -8h64q39 0 43 2q12 2 15 11.5t3 25.5v1124l817 -1134q14 -16 21.5 -21.5t23.5 -7.5h78q20 0 27.5 5t7.5 32v1372q0 23 -5 30t-26 7h-106q-20 -4 -21 -39v-1059l-770 1067q-16 23 -22.5 27t-26.5 4h-119q-25 0 -32 -7t-7 -32v-1368z" />
<glyph unicode="O" horiz-adv-x="1449" d="M72 723q0 -168 50 -306t138 -237.5t208 -155t261 -55.5q147 0 269 61.5t209 169.5q87 106 133 252q39 124 39 265q0 24 -1 49q-6 133 -49 261t-124 228.5t-198.5 162t-275.5 61.5q-170 0 -295 -66.5t-205.5 -174.5t-119.5 -243t-39 -272zM285 735q0 88 12 173t42 159 t78 135.5t118 102.5q90 51 188 51q57 0 132 -25.5t142.5 -91t115.5 -181.5t52 -298q0 -43 -1 -97.5t-11 -116t-30.5 -124t-57.5 -119.5q-66 -102 -158 -149.5t-180 -47.5q-70 0 -136.5 27t-122.5 79t-99 129t-64 179q-20 94 -20 215z" />
<glyph unicode="P" horiz-adv-x="1067" d="M135 37q0 -23 8.5 -30t30.5 -7h125q20 0 28.5 6t8.5 31v584q29 -4 54.5 -5.5t60.5 -1.5q152 0 269.5 36t197.5 114q41 39 64.5 80t34.5 80t14 71.5t3 53.5q0 59 -12 106t-30.5 83t-40 61.5t-40.5 43.5q-47 41 -103 65t-112.5 35t-107.5 14t-90 3q-53 0 -112.5 -3t-111 -9 t-87 -13.5t-44.5 -17.5q-6 -8 -7 -20.5t-1 -22.5v-1337zM336 739v594q27 4 53.5 8.5t69.5 4.5q33 0 93 -5.5t120.5 -34t105.5 -89t45 -170.5q0 -109 -41 -172.5t-101 -95t-127 -40t-120 -8.5q-33 0 -54.5 2t-43.5 6z" />
<glyph unicode="Q" horiz-adv-x="1492" d="M74 715q0 -145 39 -273.5t114.5 -226.5t188 -161.5t258.5 -78.5q41 -86 97 -151.5t121.5 -113.5t134.5 -80.5t132 -53.5q43 -12 87 -22.5t82 -17.5t66.5 -11t41.5 -4q39 0 45 16.5t6 24.5q0 23 -15.5 30t-56.5 17q-131 31 -217 76t-135 84q-82 66 -109.5 122t-38.5 99v2 q111 29 202 93.5t157.5 158.5t103.5 216t37 265q0 158 -46 295t-132 238.5t-211 160t-283 58.5q-150 0 -272.5 -54.5t-210.5 -155t-137 -240.5t-49 -312zM285 731q0 164 34.5 268.5t77.5 165.5q61 92 154.5 142.5t193.5 50.5q84 0 174.5 -42t159.5 -140q70 -94 94.5 -208 t28.5 -231q1 -18 1 -37q0 -98 -19 -192q-21 -113 -84 -211q-66 -98 -158 -150.5t-197 -52.5q-86 0 -168.5 38t-147 117t-104.5 198.5t-40 283.5z" />
<glyph unicode="R" horiz-adv-x="1110" d="M137 35q0 -25 8.5 -30t30.5 -5h119q23 0 31 8t8 35v539q0 8 1 20t5 24.5t16.5 20.5t32.5 8q41 0 66.5 -26.5t40.5 -48.5l342 -547q8 -12 12 -18.5t10 -9.5t14.5 -4t22.5 -1h147q10 0 21.5 2t11.5 18q0 10 -4 18.5t-10 18.5l-416 623q172 43 265.5 144.5t93.5 248.5 q0 68 -16.5 119t-38 86t-41 54.5t-27.5 25.5q-43 37 -94.5 57.5t-103.5 30.5t-103.5 12t-94.5 2q-39 0 -88 -2t-94 -6t-82 -9t-53 -11q-20 -8 -26.5 -19.5t-6.5 -44.5v-1333zM334 748v587q31 4 58.5 7.5t72.5 3.5q33 0 90 -5.5t112.5 -33t95.5 -88t40 -170.5 q0 -139 -85 -214t-220 -87q-12 0 -22.5 -1.5t-26.5 -1.5t-43 1.5t-72 1.5z" />
<glyph unicode="S" horiz-adv-x="1067" d="M80 279q0 -33 24.5 -85.5t79 -102.5t141.5 -86t210 -36q100 0 183 31t143.5 85t93 130t32.5 166q0 98 -34.5 167.5t-84 119t-102.5 80t-92 49.5l-107 49q-57 27 -109 53.5t-90 58t-60.5 73.5t-22.5 102q0 45 16 84.5t46 70.5t72 49.5t93 18.5q49 0 85 -14.5t63.5 -37 t47 -48t33.5 -50.5q16 -29 38 -50t61 -21t63.5 26.5t24.5 67.5q0 39 -29 82t-82 79.5t-128 61.5t-167 25q-98 0 -176 -30t-133 -81t-85 -121.5t-30 -152.5q0 -92 34 -158t80 -111t95 -72.5t80 -41.5l111 -54q59 -27 113.5 -55.5t95.5 -64t65.5 -84t24.5 -113.5 q0 -100 -66.5 -170t-181.5 -70q-63 0 -109.5 21.5t-77 51.5t-49 62.5t-30.5 57.5q-16 33 -39 60.5t-68 27.5q-35 0 -65.5 -25.5t-30.5 -74.5z" />
<glyph unicode="T" d="M16 1354q0 -23 7.5 -31t29.5 -8h359v-1274q2 -29 11 -35t34 -6h118q25 0 30 8t7 31v1276h361q23 0 30 7t7 30q0 33 -1 51t-4.5 27.5t-10.5 12.5t-21 3h-920q-29 0 -33 -15.5t-4 -76.5z" />
<glyph unicode="U" horiz-adv-x="1193" d="M117 459q0 -59 8 -134t47 -145q12 -20 39 -56t76 -71t125.5 -59.5t189.5 -24.5q141 0 247.5 46t170.5 153q43 70 50 134.5t9 127.5v979q0 35 -22 37q-2 0 -14.5 1t-28.5 1h-33h-29q-20 0 -26 -8t-6 -31v-956q0 -59 -5.5 -108.5t-40.5 -102.5q-41 -63 -109.5 -92 t-143.5 -29q-111 0 -172.5 44t-89 105.5t-32.5 124t-5 99.5v917q0 27 -7.5 32t-31.5 5h-129q-23 0 -30 -6t-7 -31v-952z" />
<glyph unicode="V" horiz-adv-x="1150" d="M0 1423q0 -4 2 -9t6 -21l514 -1362q8 -23 21.5 -27t60.5 -4q20 0 26.5 4t16.5 27l498 1362q6 25 6 30q0 16 -18 23h-113q-20 0 -26.5 -7t-14.5 -30l-375 -1075l-385 1075q-10 29 -17 33t-32 4h-135q-8 0 -21.5 -2t-13.5 -21z" />
<glyph unicode="W" horiz-adv-x="1748" d="M0 1419q0 -4 1 -9t7 -26l398 -1351q10 -25 23 -29t63 -4q23 0 27.5 5t12.5 28l332 1014l357 -1016q10 -29 28 -31h60q16 0 22 6t12 27l398 1351q6 23 7 28t1 11q0 14 -7 17.5t-16 5.5h-106q-23 0 -30 -8t-13 -31l-289 -1045l-352 1047q-8 23 -11 30t-14 7h-47 q-12 0 -17 -7t-16 -40l-339 -1037l-281 1043q-7 29 -15 36q-7 5 -22 5h-10h-129q-14 0 -24.5 -5t-10.5 -22z" />
<glyph unicode="X" horiz-adv-x="1110" d="M0 23q0 -16 10 -19.5t21 -3.5h100q18 0 26.5 6t24.5 35l357 573l350 -581q14 -23 21.5 -28t33.5 -5h137q8 0 18.5 3t10.5 17q0 10 -14 33l-445 746l369 600q10 14 10 26q0 16 -10 18.5t-16 2.5h-60h-35t-17 -1t-9 -3q-6 -4 -21 -27l-293 -469l-282 469q-12 23 -19.5 27 t-36.5 4h-129h-8q-25 0 -24 -25q0 -6 2 -12t12 -20l371 -629l-441 -707q-14 -20 -14 -30z" />
<glyph unicode="Y" horiz-adv-x="1110" d="M0 1425q0 -6 2 -11t12 -23l432 -729v-629q0 -18 6.5 -25.5t26.5 -7.5h133q23 0 32 4t9 29v618l443 740q8 14 10 20t2 14q0 4 -4 12.5t-21 8.5h-114q-14 -2 -19.5 -6t-19.5 -27l-350 -598l-353 602q-10 20 -18 24.5t-31 4.5h-147q-12 0 -21.5 -4t-9.5 -17z" />
<glyph unicode="Z" d="M35 20q0 -16 14 -18t33 -2h866q27 0 29 14q0 2 1 14.5t1 26.5v27v18q0 23 -7 27t-28 4h-637l670 1255q8 16 9 24.5t1 12.5q0 16 -14.5 19.5t-36.5 3.5h-807q-25 0 -31 -7t-6 -30q0 -57 1 -69.5t5 -16.5q4 -6 13.5 -7t15.5 -1h592l-668 -1256q-10 -23 -13 -28.5t-3 -10.5z " />
<glyph unicode="[" horiz-adv-x="555" d="M135 -221q0 -23 7.5 -30t31.5 -7h324q25 0 29.5 9t4.5 48q0 18 -4 26.5t-26 8.5h-207v1778h205q23 0 27.5 10t4.5 53q0 23 -7 27t-27 4h-322q-25 0 -33 -7t-8 -30v-1890z" />
<glyph unicode="\" horiz-adv-x="894" d="M20 1675q0 -6 2.5 -12t4.5 -10l721 -1909q10 -25 22 -25q8 0 21 5q41 16 52 20t17 6q14 10 14 21q0 6 -2 12t-4 10l-718 1897q-6 18 -10.5 26t-14.5 8q-4 0 -26.5 -7t-47.5 -17q-16 -6 -23.5 -10t-7.5 -15z" />
<glyph unicode="]" horiz-adv-x="555" d="M20 -227q0 -23 7.5 -27t27.5 -4h322q25 0 33 7t8 30v1890q0 23 -7.5 30t-31.5 7h-324q-27 0 -31 -9t-4 -48q0 -18 4.5 -26.5t26.5 -8.5h207v-1778h-205q-25 0 -29 -10t-4 -53z" />
<glyph unicode="^" horiz-adv-x="1492" d="M319 717h156l275 559l268 -559h156l-357 729h-129z" />
<glyph unicode="_" d="M-20 -154v-102h1064v102h-1064z" />
<glyph unicode="`" horiz-adv-x="512" d="M100 1403q0 -33 13.5 -49.5t25.5 -26.5l199 -141q8 -4 16 -9.5t19 -5.5q12 0 24.5 11.5t12.5 36.5q0 8 -3.5 19t-17.5 26l-178 182q-10 10 -23.5 20.5t-29.5 10.5q-25 0 -41.5 -22.5t-16.5 -51.5z" />
<glyph unicode="a" horiz-adv-x="894" d="M55 254q0 -104 48.5 -160.5t110.5 -83t120.5 -31t79.5 -4.5q33 0 71.5 3.5t76.5 9.5t75 17t65 26q57 31 71.5 72.5t17.5 111.5v543q0 41 -6.5 97t-35 107.5t-90 87t-174.5 35.5q-82 0 -150.5 -20.5t-117.5 -55t-76.5 -77.5t-27.5 -90q0 -49 29.5 -67.5t52.5 -18.5 q47 0 64 29.5t28 58.5q6 16 17 38.5t30.5 43t49.5 36t75 15.5q57 0 89 -22.5t46 -56.5t16 -72t2 -68v-105q-123 -37 -225 -70.5t-176 -76.5t-115 -103.5t-41 -148.5zM242 281q0 59 26.5 99t74.5 70.5t116.5 55t152.5 51.5v-321q0 -20 -3 -46t-18.5 -49.5t-48 -39 t-91.5 -15.5q-78 0 -121 27.5t-62.5 63.5t-22.5 66.5t-3 37.5z" />
<glyph unicode="b" horiz-adv-x="1067" d="M113 276q0 -45 2 -75.5t8 -53t18.5 -41t34.5 -36.5q61 -53 138 -74t159 -21q102 0 197.5 34t168 107.5t116.5 188.5t44 277q0 125 -29.5 219t-80.5 157.5t-122 95t-151 31.5q-63 0 -114 -15t-91 -36.5t-69 -44t-45 -37.5v574q0 29 -8 35t-37 6h-100q-27 0 -33 -8.5 t-6 -32.5v-1250zM297 303v533q63 61 123.5 86.5t114.5 25.5q78 0 132 -35.5t87.5 -95t49 -135.5t15.5 -156q0 -111 -26.5 -191.5t-71.5 -132.5t-104.5 -78t-122.5 -26q-72 0 -112 24.5t-58.5 58.5t-22.5 68t-4 54z" />
<glyph unicode="c" horiz-adv-x="937" d="M66 520q0 -117 29.5 -216t85 -172t135 -115t182.5 -42q106 0 180 40t120 95.5t66.5 112t20.5 88.5q0 35 -18.5 42t-24.5 7q-18 0 -28.5 -12t-31.5 -45q-12 -20 -31.5 -48t-48 -53.5t-69.5 -44t-94 -18.5q-57 0 -112.5 28t-98.5 83t-70 139t-27 197q0 92 21.5 162.5 t58.5 120t85 75t102 25.5q45 0 76.5 -14.5t55 -38t40 -54t32.5 -61.5q12 -25 34 -43.5t52 -18.5q23 0 53.5 18.5t30.5 67.5q0 31 -21.5 75t-65.5 85t-109.5 70.5t-153.5 29.5q-111 0 -195.5 -42t-143 -117.5t-88 -179t-29.5 -226.5z" />
<glyph unicode="d" horiz-adv-x="1067" d="M66 498q0 -127 34.5 -224.5t97 -164t151.5 -100.5t198 -34q41 0 95 6.5t108.5 20.5t101.5 39t74 61q23 29 25.5 57.5t2.5 57.5v1309v9q0 21 -8 26q-10 6 -33 6h-104q-27 0 -33 -10.5t-6 -34.5v-504q-41 25 -92 46t-131 21q-119 0 -209 -52t-150.5 -136t-91 -189.5 t-30.5 -209.5zM250 547q0 92 24.5 172t67.5 137t102.5 90t128.5 33q78 0 123 -25.5t74 -50.5v-639q0 -23 -4 -50.5t-21.5 -52t-53.5 -42t-103 -17.5q-74 0 -136.5 30t-106.5 86t-69.5 139t-25.5 190z" />
<glyph unicode="e" horiz-adv-x="980" d="M66 528q0 -72 12 -154.5t53 -160.5q35 -70 81 -116t97 -73.5t104.5 -38t98.5 -10.5q121 0 200 48.5t125 111t65.5 120.5t19.5 79q0 33 -15.5 41t-25.5 8q-18 0 -27.5 -11.5t-32.5 -47.5q-51 -84 -120.5 -132.5t-161.5 -48.5q-57 0 -112.5 26t-98.5 77t-72 131t-35 186 l627 92q18 4 38.5 13.5t20.5 52.5q0 31 -16.5 92t-59.5 121.5t-119.5 105.5t-197.5 45q-94 0 -161.5 -29.5t-113.5 -67.5t-71 -76t-33 -54q-31 -57 -50 -138t-19 -192zM221 664q16 135 81 220t190 85q88 0 148 -65.5t71 -164.5z" />
<glyph unicode="f" horiz-adv-x="555" d="M18 997q0 -23 8.5 -25.5t30.5 -2.5h115v-924q0 -27 6 -36t31 -9h106q20 0 30.5 7t10.5 36v926h166q20 0 30.5 3t10.5 23q0 45 -5 56.5t-36 9.5h-170q-10 23 -18 54.5t-8 101.5q0 100 31.5 157.5t101.5 57.5q8 0 31.5 -1t31.5 1q25 4 43.5 21t18.5 50q0 39 -26 59.5 t-66 20.5q-86 0 -153 -57.5t-103 -134.5q-35 -78 -47.5 -169.5t-16.5 -160.5h-117q-29 0 -33 -10.5t-4 -53.5z" />
<glyph unicode="g" horiz-adv-x="980" d="M37 -246q0 -74 53 -131t152 -84q35 -10 80 -16t108 -6q170 0 284.5 42t184.5 103.5t100.5 130t30.5 121.5q0 84 -39 132t-91 72.5t-107.5 33t-90.5 10.5l-219 12q-45 2 -83 5t-65.5 11.5t-44 22.5t-16.5 39q0 31 22.5 62.5t59.5 66.5q29 -6 57.5 -11t67.5 -5q61 0 126 19 t119 61t89 107.5t35 160.5q0 92 -23.5 140t-46.5 79l174 41q12 4 17.5 7t5.5 13q0 2 -1 12.5t-4 21.5t-8.5 20.5t-13.5 9.5q-4 0 -32.5 -4t-62.5 -10.5t-64.5 -10.5t-42.5 -4q-37 0 -63 7t-60 22q-33 10 -69 19t-91 9q-82 0 -149.5 -25.5t-116.5 -71.5t-76 -110.5 t-27 -142.5q0 -43 9.5 -88t31.5 -88q35 -68 73 -98.5t66 -46.5q-20 -18 -51.5 -46t-60.5 -61t-49.5 -67.5t-20.5 -67.5q0 -37 16.5 -60.5t41 -39t52 -23.5t48.5 -14q-90 -57 -152.5 -127t-62.5 -154zM215 -178q0 63 39 107t88 89q18 -2 64.5 -4t96.5 -4t95 -4t61 -2 q25 -2 60 -7t66.5 -18.5t54 -40t22.5 -71.5q0 -49 -32.5 -91t-84 -71t-114 -45t-121.5 -16q-55 0 -107.5 9t-94.5 30.5t-67.5 55.5t-25.5 83zM264 760q0 66 18.5 108.5t48 69.5t65.5 38t71 11t63.5 -11t51.5 -28l15 -15t25.5 -31.5t28 -51.5t21.5 -76q6 -37 6 -74 q0 -61 -17.5 -104t-44 -68.5t-60.5 -37t-69 -11.5q-39 0 -78.5 18.5t-72.5 53.5t-52.5 87t-19.5 122z" />
<glyph unicode="h" horiz-adv-x="1067" d="M121 43q0 -23 7 -33t30 -10h108q25 0 32 10t7 39v793q53 47 114.5 80.5t133.5 33.5q59 0 108.5 -28.5t73.5 -75.5q20 -37 23.5 -76t3.5 -71v-664q0 -29 8 -34t35 -7h102q29 0 34 10t5 39v680q0 20 -2 55t-12 75t-29.5 80t-55.5 72.5t-91.5 53t-134.5 20.5 q-70 0 -122.5 -15t-91 -35.5t-63.5 -43t-39 -35.5v574q0 23 -8 30t-31 7h-108q-23 -2 -30 -10.5t-7 -26.5v-1487z" />
<glyph unicode="i" horiz-adv-x="425" d="M102 1350q0 -43 29 -75t82 -32t82 35t29 78q-4 47 -35 74.5t-74 27.5q-49 0 -81 -30.5t-32 -77.5zM121 37q0 -23 4 -30t27 -7h110q23 0 32 5t9 32v985q0 25 -8 32t-33 7h-106q-27 0 -31 -9.5t-4 -29.5v-985z" />
<glyph unicode="j" horiz-adv-x="425" d="M-141 -449q0 -20 14 -29t33 -9q14 0 54 15t89 53t101.5 102.5t91.5 160.5q47 113 58 225.5t13 243.5v707q0 23 -7 32t-30 9h-108q-25 0 -33 -8.5t-8 -34.5v-737q-2 -111 -8 -211.5t-29.5 -187.5t-71 -158.5t-131.5 -126.5q-10 -6 -19 -16.5t-9 -29.5zM111 1350 q0 -43 28.5 -75t81.5 -32t82 36q27 34 27 72v5q-2 41 -31 71.5t-78 30.5q-47 0 -78.5 -30.5t-31.5 -77.5z" />
<glyph unicode="k" horiz-adv-x="937" d="M121 33q0 -23 6 -28t29 -5h108q23 0 31 4t8 27v522l422 -522q18 -23 27.5 -27t33.5 -4h140q4 0 15 2t11 18q0 10 -16 33l-434 531l375 417q10 12 16 19.5t6 17.5q0 8 -2 13.5t-14.5 7.5t-36.5 2h-70q-29 0 -39 -6t-32 -31l-402 -440v954q0 23 -10 26t-29 3h-108 q-16 0 -25.5 -5.5t-9.5 -27.5v-1501z" />
<glyph unicode="l" horiz-adv-x="425" d="M123 37q0 -27 7 -32t32 -5h104q20 0 29.5 6t9.5 31v1497q0 23 -8 28t-31 5h-102q-20 0 -30.5 -5.5t-10.5 -27.5v-1497z" />
<glyph unicode="m" horiz-adv-x="1579" d="M119 39q0 -25 8 -32t29 -7h104q25 0 33 7t8 32v717q0 27 4 64.5t22.5 72.5t59.5 59.5t115 24.5t113.5 -28.5t58 -69.5t21.5 -83t3 -71v-688q0 -27 9.5 -32t31.5 -5h107q23 0 29 8t6 31v717q0 47 7 88t50 80q18 16 53 31.5t88 15.5q74 0 114 -25.5t58.5 -65.5t22.5 -86 t4 -87v-668q0 -27 8 -33t29 -6h108q23 2 30 9t7 30v717q0 41 -5 97t-35.5 108.5t-98.5 88t-193 35.5q-78 0 -132 -12t-92 -30.5t-61.5 -40t-39.5 -39.5q-12 14 -31.5 35.5t-55.5 41t-89.5 32.5t-130.5 13q-90 0 -182.5 -22.5t-143.5 -58.5q-37 -29 -44 -59t-7 -83v-823z" />
<glyph unicode="n" horiz-adv-x="1067" d="M121 39q0 -27 8 -34q6 -5 22 -5h9h100q23 0 33 6t10 35v756q0 18 4 50t24.5 60.5t65.5 50t127 21.5q90 0 138.5 -25.5t71 -63.5t26.5 -81t4 -80v-688q0 -29 10 -35t35 -6h113q16 4 20 15.5t4 25.5v707q0 45 -6 103t-43 110.5t-117 88t-225 35.5q-8 0 -45 -1t-88 -8 t-109.5 -21.5t-109.5 -40.5q-53 -27 -67.5 -58.5t-14.5 -91.5v-825z" />
<glyph unicode="o" horiz-adv-x="1067" d="M66 528q0 -102 29.5 -201.5t89 -177t147.5 -126t205 -48.5q115 0 201.5 49.5t146 129t89.5 180.5q28 95 27 190v13q-2 90 -29.5 186t-85 177t-144.5 133t-207 52q-111 0 -199 -47t-147.5 -123.5t-91 -177t-31.5 -209.5zM256 557q0 92 18.5 168t53 130t84 85t110.5 31 q51 0 100.5 -25.5t89.5 -78t65.5 -131.5t29.5 -185q1 -19 1 -37q0 -84 -16 -152q-18 -83 -54 -141.5t-86 -89.5t-107 -31q-55 0 -107.5 31t-92.5 90.5t-64.5 144.5t-24.5 191z" />
<glyph unicode="p" horiz-adv-x="1067" d="M121 -442q0 -25 11 -32t34 -7h102q23 0 29 10t6 27v493q29 -20 80 -46t141 -26q125 0 215 57.5t148.5 146.5t86 195.5t27.5 203.5q0 82 -21.5 171t-74.5 163.5t-146 122.5t-235 48q-66 0 -127 -11t-112.5 -29.5t-87 -42t-52.5 -48.5q-16 -27 -19 -58.5t-5 -100.5v-1237z M303 168v620q0 29 3 61t19.5 59.5t52.5 46t103 18.5q80 0 141.5 -33t104.5 -89t64.5 -135t21.5 -171q0 -106 -24.5 -189.5t-65.5 -140.5t-97.5 -86t-117.5 -29q-55 0 -106.5 19.5t-98.5 48.5z" />
<glyph unicode="q" horiz-adv-x="1067" d="M68 475q0 -98 25.5 -188t76.5 -159t127 -111t174 -42q55 0 99 12.5t79 32t63.5 41t49.5 39.5v-546q0 -27 9 -31t32 -4h102q23 0 32 6t9 29v1257q-2 59 -10 102t-55 84q-14 12 -41 26.5t-65 29t-85 23.5t-104 9q-137 0 -235.5 -57t-161 -146t-92 -198t-29.5 -209zM250 520 q0 88 21.5 170t62.5 145.5t102.5 101.5t141.5 38q8 0 30.5 -2t49 -11.5t51 -26.5t39.5 -50q10 -25 12 -53.5t2 -73.5v-535q-33 -35 -66.5 -56.5t-63.5 -32.5t-54.5 -14t-42.5 -3q-70 0 -123.5 32.5t-89 89t-54 129t-18.5 152.5z" />
<glyph unicode="r" horiz-adv-x="681" d="M123 35q0 -25 9 -30t32 -5h104q18 0 26.5 5t10.5 30v807q0 20 3 44.5t15.5 46t37 37t69.5 15.5t68.5 -15.5t44.5 -35.5q27 -29 42 -42t44 -13q39 0 61.5 26.5t22.5 61.5q0 37 -18.5 59.5t-49.5 35.5t-68.5 18t-74.5 5q-100 0 -189.5 -21.5t-136.5 -49.5q-35 -20 -44 -45 t-9 -78v-856z" />
<glyph unicode="s" horiz-adv-x="854" d="M76 207q0 -23 16.5 -62t57 -76.5t109.5 -65.5t171 -28q18 0 48 2.5t63.5 9.5t68.5 23.5t68 44.5q47 41 71.5 101.5t24.5 126.5q0 72 -23.5 123t-60.5 86.5t-81 60.5t-85 45l-88 41q-27 12 -57.5 27.5t-56 38t-42 53t-16.5 73.5q0 23 8.5 48.5t26.5 48t48 38t71 15.5 q37 0 62.5 -12.5t44 -28.5t30.5 -35.5t20 -34.5q14 -27 32 -48t59 -21q31 0 53 20.5t22 57.5q0 25 -17 60.5t-55 67t-98.5 55t-148.5 23.5q-84 0 -145.5 -23.5t-101.5 -63.5t-59.5 -91t-19.5 -106q0 -70 24.5 -120t66.5 -88t98.5 -67.5t120.5 -60.5q35 -16 69.5 -34.5 t62 -43.5t46 -58.5t18.5 -80.5q0 -57 -38 -106.5t-120 -49.5q-78 0 -115.5 34t-60.5 69q-16 31 -26 47q-10 14 -28.5 33.5t-53.5 19.5q-31 0 -57.5 -22.5t-26.5 -65.5z" />
<glyph unicode="t" horiz-adv-x="555" d="M10 1001q0 -23 5 -26.5t26 -3.5h109v-703q0 -47 7 -97t42 -97q33 -41 87 -67.5t128 -26.5q18 0 44.5 3t52.5 11t44 20.5t18 32.5q0 10 -6 25.5t-35 15.5q-6 0 -26.5 -1t-26.5 -1q-47 0 -76.5 19.5t-46.5 52.5q-16 29 -19 56.5t-5 90.5v666h180q23 0 27 10t4 51 q0 20 -7.5 24.5t-25.5 4.5h-178v250q0 18 -3 34.5t-20 16.5q-4 0 -11 -4t-24 -19l-94 -84q-18 -18 -24 -30.5t-6 -40.5v-123h-109q-23 -2 -27 -10.5t-4 -49.5z" />
<glyph unicode="u" d="M109 299q0 -78 18 -137.5t76 -106.5q37 -29 101.5 -54.5t189.5 -25.5q72 0 129 9.5t99 20.5t68.5 23.5t38.5 18.5q29 18 46.5 37.5t25.5 44.5t11 55.5t3 69.5v768q-2 23 -11 31t-34 8h-32h-37q-16 0 -28.5 -1t-14.5 -1q-16 -4 -20.5 -14.5t-4.5 -26.5v-701 q0 -37 -3 -75.5t-23.5 -70.5t-62.5 -52.5t-122 -20.5q-84 0 -130 24.5t-67.5 61.5t-26.5 79t-5 79v680q0 27 -9.5 33t-31.5 6h-107q-23 0 -29.5 -8.5t-6.5 -28.5v-725z" />
<glyph unicode="v" horiz-adv-x="894" d="M0 1036q0 -8 8 -28l371 -975q8 -18 13 -24.5t18 -8.5h79q18 0 23.5 4t15.5 27l359 977q6 18 7 23t1 9q0 16 -9 18.5t-18 2.5h-102q-16 -2 -25 -29l-266 -780l-276 776q-10 23 -16.5 28t-28.5 5h-125q-6 0 -17.5 -3t-11.5 -22z" />
<glyph unicode="w" horiz-adv-x="1323" d="M0 1036q0 -6 2 -12t6 -23l311 -970q10 -31 27 -31h72q20 0 26.5 4t14.5 27l203 659l202 -659q6 -18 12.5 -24.5t16.5 -6.5h86q16 0 21.5 7t9.5 24l303 970q6 20 8 26.5t2 10.5q0 16 -18.5 19.5t-92.5 3.5q-23 0 -29.5 -8.5t-13.5 -30.5l-215 -764l-233 770q-6 23 -10 28 t-17 5q-41 0 -45 -8q-2 -4 -5 -15.5t-5 -15.5l-221 -756l-225 756q-8 25 -16.5 32t-33.5 7h-112q-8 0 -19.5 -3t-11.5 -22z" />
<glyph unicode="x" horiz-adv-x="854" d="M0 18q0 -10 6 -13l10 -5h99q27 0 34 5t21 26l250 372l223 -372q16 -23 24.5 -27t34.5 -4h127q10 0 18.5 2t8.5 14q0 6 -3 12.5t-13 24.5l-314 512l285 443q16 25 16 34q0 14 -11 16.5t-19 2.5q-29 0 -65 -1t-44 -5q-6 -2 -22 -27l-217 -338l-211 340q-10 18 -18.5 24.5 t-31.5 6.5h-122q-10 0 -20.5 -4t-10.5 -19q0 -4 3 -10t13 -24l287 -474l-322 -481q-2 -4 -9 -16.5t-7 -14.5z" />
<glyph unicode="y" horiz-adv-x="937" d="M0 -393q0 -37 19.5 -56.5t44 -28.5t48 -10t31.5 -1q82 0 141.5 31.5t102.5 81.5t72.5 111.5t50.5 119.5l418 1146q8 20 9 26.5t1 10.5q0 23 -29 23h-100q-12 -2 -18.5 -8t-14.5 -29l-266 -788l-289 788q-10 25 -16 31t-31 6h-121q-8 0 -22.5 -2t-14.5 -23q0 -4 2 -10 t11 -25l397 -1001q-31 -96 -57.5 -158.5t-53 -99.5t-55.5 -51.5t-61 -14.5q-6 0 -22.5 3.5t-34 6.5t-33 6t-21.5 3q-41 0 -64.5 -26.5t-23.5 -61.5z" />
<glyph unicode="z" horiz-adv-x="811" d="M43 20q0 -16 11.5 -18t21.5 -2h651q16 0 25.5 3t9.5 24v59q0 20 -10.5 23.5t-20.5 3.5h-450l467 886q10 23 12 28t2 9q0 18 -14.5 21.5t-24.5 3.5h-608q-20 -2 -29.5 -5t-9.5 -26t1 -48.5t7 -29.5q4 -6 31 -6h415l-473 -889q-10 -20 -12 -25t-2 -12z" />
<glyph unicode="{" horiz-adv-x="724" d="M127 705q0 -12 3 -17.5t17 -7.5q51 -4 81 -29.5t44.5 -67.5t17.5 -98.5t3 -122.5v-198q0 -113 10 -191.5t62 -140.5q29 -33 65.5 -52.5t72.5 -28.5t66.5 -11t44.5 -2q33 0 38 7t5 42q0 16 -7 18t-27 7q-61 8 -95 31.5t-50.5 62.5t-19.5 93t-3 124v133q0 111 -3 190.5 t-19.5 135t-50.5 89.5t-95 48v8q61 16 95 48t50.5 86t19.5 135t3 194v133q0 68 3 122t19.5 93t50 63.5t95.5 32.5q27 4 30.5 11.5t3.5 42.5q0 14 -8 18t-37 4q-86 0 -149.5 -28.5t-97.5 -69.5q-53 -59 -62.5 -137t-9.5 -193v-199q0 -55 -2 -110t-16.5 -100.5t-43 -75 t-84.5 -33.5q-16 -2 -18 -11.5t-2 -47.5z" />
<glyph unicode="|" horiz-adv-x="468" d="M174 -512h121v2048h-121v-2048z" />
<glyph unicode="}" horiz-adv-x="724" d="M70 -213q0 -35 5 -42t38 -7q16 0 45.5 2t65.5 11t73 28.5t65 52.5q27 31 41.5 65.5t21.5 74.5t8 87t1 105v198q0 66 3 122.5t17.5 98.5t44 67.5t81.5 29.5q16 2 18 12t2 51q0 14 -5 16.5t-15 4.5q-55 4 -84 33.5t-43.5 75t-16.5 100.5t-2 110v199q0 68 -3 128 t-19.5 111.5t-50 92.5t-95.5 67q-35 16 -72.5 22.5t-78.5 6.5q-29 0 -37 -4t-8 -18q0 -35 4 -42.5t30 -11.5q61 -8 95 -32.5t50.5 -63.5t19.5 -93t3 -122v-133q0 -113 3.5 -194t19.5 -135t50 -86t95 -48v-8q-61 -14 -95 -48t-50 -89.5t-19.5 -135t-3.5 -190.5v-133 q0 -70 -3 -124t-19.5 -93t-50 -62.5t-95.5 -31.5q-20 -4 -27 -6.5t-7 -18.5z" />
<glyph unicode="~" horiz-adv-x="1492" d="M274 580l68 -111q29 37 50.5 61.5t42 41t42 23.5t51.5 7q25 0 47.5 -4t49 -14.5t58.5 -24.5t77 -37q68 -33 108.5 -48t87.5 -15q86 0 148.5 46t114.5 111l-64 113q-10 -14 -28.5 -35.5t-43 -42t-57.5 -36t-70 -15.5q-16 0 -32.5 3t-38 11.5t-51 22.5t-76.5 35 q-59 29 -115.5 50t-116.5 21q-53 0 -94 -18t-71.5 -44t-52 -54.5t-34.5 -46.5z" />
<glyph horiz-adv-x="1236" d="M0 18q0 -14 11.5 -16t21.5 -2h96q20 0 27.5 4t17.5 29l199 536h440l203 -538q10 -23 17 -27t34 -4h141q12 0 20.5 2t8.5 16q0 8 -2 15.5t-6 17.5l-533 1368q-8 16 -13 20.5t-15 6.5h-88q-16 0 -23.5 -5t-15.5 -26l-531 -1364q0 -4 -5 -17.5t-5 -15.5zM309 1718 q0 -57 37 -85.5t82 -28.5q61 0 89 38.5t28 79.5q0 55 -37 84t-78 29q-45 0 -83 -30.5t-38 -86.5zM416 686l178 490l176 -490h-354zM684 1718q0 -57 37 -85.5t82 -28.5q59 0 88 38.5t29 79.5q0 55 -37 84t-78 29q-45 0 -83 -30.5t-38 -86.5z" />
<glyph horiz-adv-x="1236" d="M0 18q0 -14 11.5 -16t21.5 -2h96q20 0 27.5 4t17.5 29l199 536h440l203 -538q10 -23 17 -27t34 -4h141q12 0 20.5 2t8.5 16q0 8 -2 15.5t-6 17.5l-533 1368q-8 16 -13 20.5t-15 6.5h-88q-16 0 -23.5 -5t-15.5 -26l-531 -1364q0 -4 -5 -17.5t-5 -15.5zM416 686l178 490 l176 -490h-354zM444 1714q0 -72 49.5 -123t127.5 -51t124.5 54t42.5 128q-4 66 -49 115t-118 49q-76 0 -126.5 -51t-50.5 -121zM532 1714q0 37 25 60.5t61 23.5q41 0 60.5 -26.5t21.5 -55.5q2 -35 -20.5 -61.5t-63.5 -26.5q-37 0 -60.5 24.5t-23.5 61.5z" />
<glyph horiz-adv-x="937" d="M66 520q0 -111 25.5 -204t72.5 -163.5t113.5 -114.5t146.5 -58l-16 -146q-4 -27 7 -33t34 -8q12 -2 30.5 -4t34.5 -10t27.5 -21.5t11.5 -38.5q0 -47 -36 -68.5t-83 -21.5q-33 0 -53.5 3t-36.5 8q-23 6 -30 8t-11 2q-20 0 -25.5 -12.5t-5.5 -18.5q0 -18 20.5 -31.5 t49.5 -22.5t59.5 -13.5t51.5 -4.5q51 0 92 14.5t69.5 39t44 55.5t15.5 63q0 27 -11.5 52.5t-34 46t-57 32t-82.5 9.5l27 116q109 6 180.5 50.5t112.5 99.5t57.5 108.5t16.5 77.5q0 35 -17.5 42t-23.5 7q-18 0 -28.5 -12t-31.5 -45q-12 -20 -31.5 -48t-49 -53.5t-70.5 -44 t-94 -18.5q-57 0 -111.5 28t-97.5 83t-70 139t-27 197q0 92 21.5 162.5t58.5 120t85 75t102 25.5q45 0 76.5 -14.5t55 -38t40 -54.5t32.5 -61q10 -20 29 -41t55 -21q12 0 26.5 4.5t28 14.5t22.5 26.5t9 40.5q0 31 -21.5 75t-65.5 85t-109.5 70.5t-153.5 29.5 q-111 0 -195.5 -42t-143 -117.5t-88 -179t-29.5 -226.5z" />
<glyph horiz-adv-x="980" d="M66 528q0 -72 12 -154.5t53 -160.5q35 -70 81 -116t97 -73.5t104.5 -38t98.5 -10.5q121 0 200 48.5t125 111t65.5 120.5t19.5 79q0 33 -15.5 41t-25.5 8q-18 0 -27.5 -11.5t-32.5 -47.5q-51 -84 -120.5 -132.5t-161.5 -48.5q-57 0 -112.5 26t-98.5 77t-72 131t-35 186 l627 92q18 4 38.5 13.5t20.5 52.5q0 31 -16.5 92t-59.5 121.5t-119.5 105.5t-197.5 45q-94 0 -161.5 -29.5t-113.5 -67.5t-71 -76t-33 -54q-31 -57 -50 -138t-19 -192zM221 664q16 135 81 220t190 85q88 0 148 -65.5t71 -164.5zM471 1219q0 -25 13.5 -36.5t25.5 -11.5 q10 0 18.5 5.5t16.5 9.5l199 141q12 10 24.5 26.5t12.5 49.5q0 29 -15.5 51.5t-40.5 22.5q-16 0 -29.5 -10.5t-23.5 -20.5l-180 -182q-14 -14 -17.5 -25.5t-3.5 -19.5z" />
<glyph horiz-adv-x="980" d="M66 528q0 -72 12 -154.5t53 -160.5q35 -70 81 -116t97 -73.5t104.5 -38t98.5 -10.5q121 0 200 48.5t125 111t65.5 120.5t19.5 79q0 33 -15.5 41t-25.5 8q-18 0 -27.5 -11.5t-32.5 -47.5q-51 -84 -120.5 -132.5t-161.5 -48.5q-57 0 -112.5 26t-98.5 77t-72 131t-35 186 l627 92q18 4 38.5 13.5t20.5 52.5q0 31 -16.5 92t-59.5 121.5t-119.5 105.5t-197.5 45q-94 0 -161.5 -29.5t-113.5 -67.5t-71 -76t-33 -54q-31 -57 -50 -138t-19 -192zM221 664q16 135 81 220t190 85q88 0 148 -65.5t71 -164.5zM241 1403q0 -33 13.5 -49.5t25.5 -26.5 l199 -141q8 -4 16 -9.5t19 -5.5q12 0 24.5 11.5t12.5 36.5q0 8 -3.5 19t-17.5 26l-178 182q-10 10 -23.5 20.5t-29.5 10.5q-25 0 -41.5 -22.5t-16.5 -51.5z" />
<glyph horiz-adv-x="980" d="M66 528q0 -72 12 -154.5t53 -160.5q35 -70 81 -116t97 -73.5t104.5 -38t98.5 -10.5q121 0 200 48.5t125 111t65.5 120.5t19.5 79q0 33 -15.5 41t-25.5 8q-18 0 -27.5 -11.5t-32.5 -47.5q-51 -84 -120.5 -132.5t-161.5 -48.5q-57 0 -112.5 26t-98.5 77t-72 131t-35 186 l627 92q18 4 38.5 13.5t20.5 52.5q0 31 -16.5 92t-59.5 121.5t-119.5 105.5t-197.5 45q-94 0 -161.5 -29.5t-113.5 -67.5t-71 -76t-33 -54q-31 -57 -50 -138t-19 -192zM221 664q16 135 81 220t190 85q88 0 148 -65.5t71 -164.5zM230 1192q0 -16 9 -24.5t19 -8.5q12 0 35 19 l150 102q10 8 24 16.5t31 8.5q14 0 26.5 -6.5t26.5 -14.5l166 -106q8 -4 16.5 -9.5t16.5 -5.5q10 0 19 10.5t9 24.5q0 16 -8 25.5t-47 42.5q-74 59 -111.5 98t-72.5 74q-6 8 -16.5 17t-26.5 9t-24.5 -9t-24.5 -32q-37 -47 -81 -88t-102 -90q-18 -16 -26 -26.5t-8 -26.5z" />
<glyph d="M109 299q0 -78 18 -137.5t76 -106.5q37 -29 101.5 -54.5t189.5 -25.5q72 0 129 9.5t99 20.5t68.5 23.5t38.5 18.5q29 18 46.5 37.5t25.5 44.5t11 55.5t3 69.5v768q-2 23 -11 31t-34 8h-32h-37q-16 0 -28.5 -1t-14.5 -1q-16 -4 -20.5 -14.5t-4.5 -26.5v-701 q0 -37 -3 -75.5t-23.5 -70.5t-62.5 -52.5t-122 -20.5q-84 0 -130 24.5t-67.5 61.5t-26.5 79t-5 79v680q0 27 -9.5 33t-31.5 6h-107q-23 0 -29.5 -8.5t-6.5 -28.5v-725zM239 1403q0 -33 13.5 -49.5t25.5 -26.5l199 -141q8 -4 16 -9.5t19 -5.5q12 0 24.5 11.5t12.5 36.5 q0 8 -3.5 19t-17.5 26l-178 182q-10 10 -23.5 20.5t-29.5 10.5q-25 0 -41.5 -22.5t-16.5 -51.5z" />
<glyph d="M109 299q0 -78 18 -137.5t76 -106.5q37 -29 101.5 -54.5t189.5 -25.5q72 0 129 9.5t99 20.5t68.5 23.5t38.5 18.5q29 18 46.5 37.5t25.5 44.5t11 55.5t3 69.5v768q-2 23 -11 31t-34 8h-32h-37q-16 0 -28.5 -1t-14.5 -1q-16 -4 -20.5 -14.5t-4.5 -26.5v-701 q0 -37 -3 -75.5t-23.5 -70.5t-62.5 -52.5t-122 -20.5q-84 0 -130 24.5t-67.5 61.5t-26.5 79t-5 79v680q0 27 -9.5 33t-31.5 6h-107q-23 0 -29.5 -8.5t-6.5 -28.5v-725zM228 1192q0 -16 9 -24.5t19 -8.5q12 0 35 19l150 102q10 8 24 16.5t31 8.5q14 0 26.5 -6.5t26.5 -14.5 l166 -106q8 -4 16.5 -9.5t16.5 -5.5q10 0 19 10.5t9 24.5q0 16 -8 25.5t-47 42.5q-74 59 -111.5 98t-72.5 74q-6 8 -16.5 17t-26.5 9t-24.5 -9t-24.5 -32q-37 -47 -81 -88t-102 -90q-18 -16 -26 -26.5t-8 -26.5z" />
<glyph unicode="&#xa0;" horiz-adv-x="937" d="M47 877q2 -10 9 -18.5t38 -4.5l303 25l-28 -838q-2 -29 6 -35t33 -6h122q25 0 32 7t7 36l-32 836l309 -25q29 -4 38 1t9 34v33v34t-1 29.5t-1 15.5q-2 16 -10.5 20.5t-34.5 0.5l-309 -25l30 406q4 29 -4 36t-35 7h-118q-25 -2 -35 -7t-6 -36l28 -406l-303 25 q-29 4 -38 -2t-9 -35v-108z" />
<glyph unicode="&#xa1;" horiz-adv-x="724" d="M61 1231q0 -61 24 -116.5t64.5 -96.5t96 -64.5t116.5 -23.5q63 0 118 23.5t95.5 64.5t64.5 96t24 117q0 61 -24 116.5t-64.5 96.5t-95.5 64.5t-118 23.5q-61 0 -116.5 -23.5t-96 -64.5t-64.5 -95.5t-24 -117.5zM184 1231q0 74 51 126t127 52q74 0 126.5 -52t52.5 -126 t-52.5 -126t-126.5 -52q-76 0 -127 52t-51 126z" />
<glyph unicode="&#xa2;" horiz-adv-x="937" d="M66 520q0 -106 25.5 -200.5t75.5 -167t125 -118.5t173 -59v-131q0 -16 3 -23t21 -7q31 0 39.5 3t8.5 25v133q20 2 49.5 6.5t64.5 18.5t72 41t72 72q37 47 62.5 106.5t25.5 97.5q0 29 -15.5 39.5t-25.5 10.5q-18 0 -27.5 -13.5t-34.5 -66.5q-14 -29 -34.5 -57.5t-49 -51 t-67.5 -37t-92 -16.5v856q43 -6 71.5 -18.5t49 -28.5t35 -39t26.5 -51q20 -47 35.5 -69.5t52.5 -22.5q27 0 52.5 18t25.5 59q0 29 -22.5 72t-66.5 84t-108.5 70.5t-150.5 31.5v140q0 20 -7.5 23t-40.5 3q-16 0 -20 -4t-4 -20v-142q-92 -10 -166 -59t-126 -125t-79.5 -174 t-27.5 -209zM223 590q0 92 25.5 178t91.5 147q39 35 70.5 46.5t54.5 17.5v-842q-14 4 -36.5 13.5t-49.5 30t-54.5 55t-52.5 92.5q-25 59 -37 130.5t-12 131.5z" />
<glyph unicode="&#xa3;" horiz-adv-x="1193" d="M47 215q0 -47 15.5 -91t45 -79t72.5 -55.5t99 -20.5q78 0 136 39t95 98q20 35 30.5 64t18.5 57q8 -8 28.5 -29.5t42 -45t42 -45t28.5 -27.5q39 -37 98.5 -74t139.5 -37q59 0 104 23.5t74 57.5t43.5 74t14.5 73t-18.5 39t-22.5 6q-16 0 -27.5 -10.5t-24.5 -26.5 q-16 -18 -39.5 -40t-70.5 -22q-33 0 -69 17.5t-72.5 44t-73.5 61.5t-72 68q-18 18 -29.5 28.5t-20.5 18.5t-18.5 15t-21.5 16q2 16 3 34.5t1 45.5q0 70 -9 131t-30 127h293q29 2 34 10t5 47q0 23 -8.5 27t-28.5 4h-313q-18 74 -30.5 121t-20 79.5t-9.5 57t-2 55.5 q0 98 52.5 158.5t146.5 60.5q86 0 141 -51t76 -137q12 -49 29.5 -86t70.5 -37q29 0 57.5 20.5t28.5 73.5q0 16 -13 68.5t-56 110t-122 101.5t-210 44q-86 0 -158.5 -25t-125 -71t-81 -109.5t-28.5 -143.5q0 -49 9 -94t23.5 -83t28.5 -67.5t23 -45.5h-199q-20 0 -28.5 -4.5 t-8.5 -26.5q0 -39 4 -47t31 -10h242q27 -66 48 -135.5t25 -141.5q-29 14 -62.5 26.5t-88.5 12.5q-63 0 -116.5 -23.5t-91.5 -63.5t-58.5 -94.5t-20.5 -115.5zM166 248q0 59 36 103t107 44q57 0 96 -25.5t76 -60.5q-10 -41 -25.5 -78.5t-37 -66.5t-50 -45.5t-67.5 -16.5 q-23 0 -46.5 8.5t-44 27t-32.5 46t-12 64.5z" />
<glyph unicode="&#xa4;" horiz-adv-x="937" d="M63 629q0 -74 29 -128.5t72 -93t91 -64.5t87 -44l92 -41q43 -20 84 -44t74 -52.5t53.5 -67.5t20.5 -92q0 -45 -14.5 -76.5t-38 -52t-51 -30t-54.5 -9.5q-6 0 -27.5 2t-50.5 14.5t-57.5 40t-48.5 76.5q-29 72 -49.5 103.5t-67.5 31.5q-33 0 -61.5 -24.5t-28.5 -73.5 q0 -39 22.5 -89t69.5 -95t119.5 -76t171.5 -31q82 0 145.5 28t106.5 73t64.5 104t21.5 123q0 59 -16.5 104t-40 78t-50 56.5t-45.5 37.5q80 66 134 140.5t54 171.5q0 72 -29.5 124t-73.5 89t-93 61.5t-90 42.5q-55 25 -104.5 48.5t-86.5 53t-57.5 67.5t-20.5 93 q0 59 38 109.5t114 50.5q41 0 68.5 -15.5t47 -37t33 -47t21.5 -47.5q10 -25 30.5 -53.5t61.5 -28.5q23 0 51.5 18.5t28.5 71.5q0 35 -19.5 78t-61.5 80.5t-105.5 63.5t-151.5 26q-80 0 -139.5 -23.5t-100 -63.5t-61 -93.5t-20.5 -114.5q0 -47 11 -85t28.5 -67t38 -51.5 t36.5 -40.5q-23 -14 -57.5 -41t-67 -65.5t-56.5 -89t-24 -113.5zM219 670q0 53 28.5 107t92.5 108q20 -12 35.5 -20.5t31 -16.5t35 -16.5t45.5 -20.5q45 -18 87 -38.5t76 -46.5t54.5 -59.5t20.5 -80.5q0 -18 -4 -41t-17.5 -50.5t-38 -59t-65.5 -66.5q-12 6 -40 18 t-59.5 26.5t-59 27t-38.5 16.5q-29 16 -61.5 33.5t-60 42t-45 58.5t-17.5 79z" />
<glyph unicode="&#xa5;" horiz-adv-x="681" d="M96 723q0 -49 18.5 -93t51.5 -78t79 -53.5t103 -19.5q53 0 96 19.5t75 52.5t49.5 78t17.5 94t-16.5 93t-49.5 78t-77 53.5t-99 19.5q-57 0 -103 -21.5t-79 -56.5t-49.5 -79t-16.5 -87z" />
<glyph unicode="&#xa6;" horiz-adv-x="1366" d="M184 1049q0 -66 22.5 -137.5t74.5 -125.5q59 -66 118.5 -83t110.5 -27v-1018h94v1698h322v-1698h94v1698h67v90h-452q-39 0 -86 -4t-96.5 -18.5t-98.5 -45t-90 -84.5q-47 -59 -63.5 -126.5t-16.5 -118.5z" />
<glyph unicode="&#xa7;" d="M123 35q0 -25 8 -29t35 -6h102q23 0 31 5t6 34v1132q0 37 4 90.5t22.5 101.5t56.5 82t106 34q43 0 77.5 -16.5t59 -44t37 -64.5t12.5 -76q0 -70 -34 -128t-95 -144q-39 -53 -67.5 -103.5t-28.5 -114.5q0 -76 38.5 -121.5t92.5 -91.5l114 -100q53 -45 97.5 -96t44.5 -129 q0 -80 -47 -120t-101 -40q-49 0 -80.5 21.5t-54.5 42.5q-12 12 -28.5 24t-38.5 12q-29 0 -51.5 -20t-22.5 -55q0 -25 14 -49.5t43 -44t74 -33t106 -13.5q154 0 248 83t94 229q0 66 -19.5 118t-51 96t-72.5 80.5t-86 71.5q-80 66 -118 105t-38 92q0 18 3 31.5t13.5 33t31 48 t53.5 75.5q45 59 83 126t38 153q0 61 -24 111.5t-64.5 86t-98 56t-125.5 20.5q-78 0 -137 -23.5t-100 -58.5q-57 -49 -90 -113.5t-48.5 -130t-19.5 -125t-4 -102.5v-1003z" />
<glyph unicode="&#xa8;" horiz-adv-x="1705" d="M125 723q0 -162 60.5 -296t160.5 -230.5t232.5 -149.5t273.5 -53q154 0 288 56t232 154.5t154.5 230.5t56.5 284q0 150 -54 283t-152.5 233t-232.5 158.5t-292 58.5q-147 0 -278.5 -55.5t-231.5 -152.5t-158.5 -230t-58.5 -291zM190 723q0 137 51.5 258t141.5 211 t211 142t262 52t263 -52t211 -143t138.5 -212t49.5 -258t-52.5 -258t-141.5 -211t-210 -141.5t-262 -51.5q-135 0 -256 51.5t-211 140.5t-142.5 211t-52.5 261zM561 270h133v424q90 0 144.5 -5t87 -27.5t48 -67.5t25.5 -125q6 -47 12.5 -79t12.5 -53.5t12 -36.5t13 -30h153 q-14 31 -24.5 57.5t-17.5 56.5t-12 65.5t-13 85.5q-14 84 -44 129t-102 71q84 12 143.5 67.5t59.5 151.5q0 66 -35 122.5t-104 82.5q-41 16 -84 19.5t-127 3.5h-281v-912zM696 801v278h123q41 0 72 -1t53.5 -4t38.5 -10t31 -20q43 -37 43 -100q0 -55 -23.5 -84t-57.5 -42 t-69 -15t-59 -2h-152z" />
<glyph unicode="&#xa9;" horiz-adv-x="1705" d="M125 723q0 -160 59.5 -294t159.5 -230.5t232.5 -150.5t275.5 -54q154 0 287 57.5t231 155.5t154.5 230t56.5 282q0 152 -54 285t-151.5 232t-230.5 157.5t-291 58.5q-152 0 -285 -56.5t-231 -154.5t-155.5 -231t-57.5 -287zM190 725q0 135 51.5 255t140.5 210t211 143 t263 53t262 -52t209 -142t138.5 -211t50.5 -260q0 -133 -50.5 -253t-138.5 -211t-209 -144.5t-264 -53.5q-135 0 -256 50.5t-211 139.5t-143.5 211t-53.5 265zM395 721q0 -100 36 -185t99.5 -147.5t147.5 -98.5t182 -36q111 0 198 40t140 93q25 25 49 59l-86 72 q-18 -20 -42.5 -47t-59.5 -49.5t-81 -37.5t-108 -15q-76 0 -141 28.5t-113.5 76.5t-75 112.5t-26.5 138.5q0 80 28.5 146.5t78 114.5t114 73.5t137.5 25.5q57 0 102.5 -15t80.5 -38.5t61.5 -50.5t44.5 -49l86 80q-18 23 -50 54.5t-78 61t-108.5 51t-144.5 21.5 q-94 0 -180 -35t-150.5 -97t-102.5 -150.5t-38 -196.5z" />
<glyph unicode="&#xaa;" horiz-adv-x="1406" d="M49 1362h223v-594h97v594h217v86h-537v-86zM643 768h92v444l-6 138l35 -117l147 -465h86l148 465l35 119l-4 -140v-444h94v680h-137l-175 -559l-178 559h-137v-680z" />
<glyph unicode="&#xab;" horiz-adv-x="512" d="M100 1219q0 -25 13.5 -36.5t25.5 -11.5q10 0 18.5 5.5t16.5 9.5l199 141q12 10 24.5 26.5t12.5 49.5q0 29 -15.5 51.5t-40.5 22.5q-16 0 -29.5 -10.5t-23.5 -20.5l-180 -182q-14 -14 -17.5 -25.5t-3.5 -19.5z" />
<glyph unicode="&#xac;" horiz-adv-x="512" d="M-37 1358q0 -49 34 -81t81 -32q49 0 79.5 33t30.5 82t-31.5 79.5t-78.5 30.5q-45 0 -80 -29.5t-35 -82.5zM326 1358q0 -49 32.5 -81t79.5 -32q49 0 81 33t32 82t-33 79.5t-80 30.5q-45 0 -78.5 -29.5t-33.5 -82.5z" />
<glyph unicode="&#xad;" horiz-adv-x="641" d="M117 535q0 -23 7 -30t28 -7h337q31 0 33 22v92q0 20 -8 25.5t-29 5.5h-333q-10 0 -19.5 -3t-13.5 -17q0 -2 -1 -12.5t-1 -24.5v-27v-24z" />
<glyph unicode="&#xae;" horiz-adv-x="1662" d="M0 27q0 -18 12.5 -22.5t22.5 -4.5h96q18 0 26.5 5t18.5 28l215 520h395l101 -522q6 -23 16 -27t33 -4h625q14 0 21 3t10 12.5t4 30t1 52.5q0 20 -5 27.5t-27 7.5h-492l-112 563h444q16 0 25.5 4.5t9.5 22.5v16v25q0 14 -1 26.5t-1 14.5q-2 10 -7.5 14t-25.5 4h-469 l-102 484h571q23 0 29 5t6 27v47q0 29 -2 35q0 14 -5.5 19.5t-27.5 5.5h-752q-29 0 -38 -7t-21 -34l-582 -1342q-10 -20 -11 -26t-1 -10zM440 670l219 542l105 -542h-324z" />
<glyph unicode="&#xaf;" horiz-adv-x="1449" d="M72 713q0 -158 51 -303.5t164 -255.5l-156 -226q-10 -14 -10 -20q0 -4 8 -12.5t18.5 -16.5t20.5 -13t14 -5t7.5 2t13.5 12l149 221q18 -14 50 -35.5t78 -42t105.5 -35t135.5 -14.5q139 0 259 57.5t209 160t139 243.5t50 307t-50 302.5t-161 256.5l158 226q4 4 7 9t5 11 q0 6 -9 14.5t-20.5 15.5t-21.5 12t-12 5q-6 2 -10 -4t-15 -16l-147 -213q-23 16 -54.5 36.5t-76.5 39t-105.5 32t-138.5 13.5q-154 0 -275.5 -62.5t-205.5 -169t-129 -244t-45 -288.5zM272 715q0 147 36 265t97.5 202t146.5 129t183 45q57 0 101.5 -13.5t79 -34t59 -42 t41.5 -37.5l-629 -930q-16 27 -35.5 63.5t-37 88t-30 117t-12.5 147.5zM444 227l627 926q12 -20 30.5 -55t35 -85t29 -116t12.5 -149q0 -150 -35 -269t-97.5 -201.5t-146.5 -127t-182 -44.5q-100 0 -165 39t-108 82z" />
<glyph unicode="&#xb1;" d="M63 0h898v121h-898v-121zM63 700h392v-389h120v389h386v121h-386v389h-120v-389h-392v-121z" />
<glyph unicode="&#xb4;" horiz-adv-x="1110" d="M0 1423q0 -4 2 -10t12 -22l322 -543h-209q-27 0 -31 -12.5t-4 -59.5q0 -23 7 -30t28 -7h274l45 -77v-78h-319q-27 0 -31 -12.5t-4 -59.5q0 -23 7 -30t28 -7h319v-440q0 -23 6.5 -29t26.5 -6h133q23 0 32 4t9 31v440h312q25 0 28.5 12.5t3.5 65.5q0 20 -7 25.5t-27 5.5 h-310v67l52 88h260q25 0 28.5 12.5t3.5 65.5q0 20 -7 25.5t-27 5.5h-193l326 543q8 14 10 20t2 12t-4 14.5t-21 8.5h-114q-14 -2 -19.5 -7t-19.5 -26l-350 -600l-353 604q-10 20 -18 24.5t-31 4.5h-147q-12 0 -21.5 -4t-9.5 -19z" />
<glyph unicode="&#xb5;" d="M109 -444q0 -41 43 -37h106q23 0 29 9t6 26v450q35 -12 83 -20.5t120 -8.5q70 0 125 8.5t97 20.5t70.5 24.5t40.5 18.5q29 18 46.5 37.5t25.5 44.5t11 55.5t3 69.5v768q-2 23 -11 31t-34 8h-32h-37q-16 0 -28.5 -1t-14.5 -1q-16 -4 -20.5 -14.5t-4.5 -26.5v-701 q0 -37 -3 -75.5t-23.5 -70.5t-62.5 -52.5t-122 -20.5q-84 0 -130 24.5t-67.5 61.5t-26.5 79t-5 79v680q0 27 -9.5 33t-31.5 6h-105q-27 0 -32.5 -8.5t-5.5 -28.5v-1468z" />
<glyph unicode="&#xbb;" horiz-adv-x="555" d="M31 944q0 -66 30.5 -101.5t69.5 -52t76 -19.5t49 -3q47 0 97 8t83 27q37 20 46.5 47t11.5 70v337q0 23 -3.5 59t-21.5 68.5t-57 56t-111 23.5q-51 0 -94 -13t-74 -34.5t-48 -49.5t-17 -56q0 -33 18 -45.5t35 -12.5q31 0 42 19.5t17 38.5q4 8 10.5 21.5t18.5 26.5 t30.5 22.5t45.5 9.5q57 0 80 -43q4 -8 7 -18.5t4 -27t1 -40.5v-66q-76 -23 -139.5 -43t-109.5 -48t-71.5 -67t-25.5 -94zM154 961q0 72 59 103.5t164 63.5v-196q0 -12 -2 -27.5t-11.5 -29t-29 -22.5t-55.5 -9q-43 0 -68 14t-38 33.5t-16 39t-3 30.5z" />
<glyph unicode="&#xbc;" horiz-adv-x="681" d="M49 1114q0 -63 18.5 -125.5t55.5 -112t92 -79t129 -29.5q72 0 127 30.5t92 81t55.5 114t16.5 126.5q-2 55 -19.5 115.5t-52.5 112t-90 84t-131 32.5q-68 0 -122 -28.5t-92 -76.5t-58.5 -111.5t-20.5 -133.5zM174 1133q0 113 44 183t118 70q61 0 113.5 -63.5t58.5 -194.5 t-41 -203.5t-119 -72.5q-33 0 -64.5 19.5t-56 55.5t-39 88t-14.5 118z" />
<glyph unicode="&#xbe;" horiz-adv-x="1492" d="M53 266q0 -51 21.5 -102t63.5 -93t105.5 -69t149.5 -27q92 0 154.5 27t100.5 62.5t58.5 72.5t28.5 60q35 -72 82 -120t119 -77q33 -14 65.5 -19.5t61.5 -5.5q98 0 169 41t115 98.5t65.5 119t21.5 102.5q0 33 -15.5 43t-27.5 10q-18 0 -27.5 -13.5t-22.5 -37.5 q-16 -35 -34.5 -65.5t-40.5 -53.5q-33 -33 -82 -55.5t-101 -22.5q-33 0 -69.5 12.5t-72.5 42t-66.5 75.5t-49.5 114q-12 47 -16 86t-6 76l549 84q29 4 54.5 16t25.5 60q0 2 -4.5 29.5t-16.5 69.5t-35.5 91t-64.5 91t-100.5 69.5t-141.5 27.5q-72 0 -124 -21.5t-89 -52 t-58.5 -62t-33.5 -50.5q-8 23 -24.5 54.5t-48.5 60t-81 50t-127 21.5q-106 0 -178 -29.5t-117 -70.5t-64.5 -84t-19.5 -72q0 -47 27 -67.5t55 -20.5q43 0 61.5 30t35.5 71q8 20 18 43.5t29.5 44t49.5 34t75 13.5q20 0 42.5 -5t44 -20.5t40 -42t30.5 -69.5q10 -39 15.5 -84 t13.5 -133q-115 -16 -221.5 -41t-187 -65t-130 -100.5t-49.5 -150.5zM240 285q0 63 34.5 104t91 67.5t130 41t153.5 26.5q2 -25 4 -51.5t2 -62.5q0 -51 -8 -111.5t-37 -108.5q-29 -43 -75 -70.5t-103 -27.5q-45 0 -81 16.5t-60.5 44t-37.5 61.5t-13 71zM803 645 q0 78 20.5 138.5t53 101.5t75.5 61.5t90 20.5q33 0 66 -13.5t60.5 -43t47 -78t25.5 -119.5z" />
<glyph unicode="&#xbf;" horiz-adv-x="1067" d="M66 -55q0 -6 7 -13.5t15 -13.5t16.5 -10t10.5 -4q8 0 18 14l117 166q12 -12 35.5 -30.5t57.5 -36t81 -30t106 -12.5q109 0 196 47.5t147.5 124t93 176t32.5 203.5q0 111 -33.5 216.5t-105.5 191.5l117 168q12 12 12 24q0 10 -17.5 24.5t-23.5 14.5q-12 0 -22 -16 l-119 -162q-14 12 -36.5 29.5t-55.5 33t-76 25.5t-100 10q-111 0 -199 -46t-149.5 -123.5t-93 -178t-31.5 -209.5q0 -84 15 -149.5t36.5 -113.5t44 -79.5t37.5 -50.5l-119 -164q-6 -10 -10 -15t-4 -11zM240 561q0 78 18 152.5t55 135t90.5 97.5t122.5 37q74 0 119 -32.5 t80 -76.5l-424 -593q-16 41 -38.5 108.5t-22.5 171.5zM340 209l422 592q20 -41 41.5 -109.5t21.5 -173.5q0 -84 -20.5 -160.5t-57 -135t-89 -92.5t-117.5 -34q-10 0 -33 3t-50.5 14.5t-58 34t-59.5 61.5z" />
<glyph unicode="&#xc0;" horiz-adv-x="854" d="M72 254q0 -53 21.5 -104.5t65.5 -91.5t109.5 -64.5t151.5 -24.5q92 0 160.5 24.5t113.5 63.5t67.5 87.5t22.5 95.5q0 55 -31.5 76.5t-56.5 21.5q-47 0 -64.5 -33t-27.5 -72q-4 -16 -13 -41.5t-27.5 -49t-49.5 -41t-78 -17.5q-49 0 -83 18.5t-55.5 48t-30.5 63.5t-9 65 q0 51 16.5 89t43 69.5t61.5 58t74 53.5q18 14 28.5 23.5t15.5 19.5t6 22.5t1 30.5l-25 301q-4 29 -13 34t-46 5q-31 0 -36 -13.5t-5 -56.5q-2 -82 -8 -137t-23.5 -98t-49.5 -81t-81 -85q-25 -23 -50.5 -48.5t-47 -56t-34.5 -69.5t-13 -86zM301 1339q-4 -55 34 -95t93 -40 q59 0 93 40t34 87q0 43 -33 85t-92 42q-49 0 -87 -33t-42 -86z" />
<glyph unicode="&#xc1;" horiz-adv-x="598" d="M127 1339q-4 -57 35 -96t94 -39q59 0 94 40t35 87q0 43 -33 85t-94 42q-49 0 -88 -33t-43 -86zM147 45q-2 -35 10.5 -40t35.5 -5h126q23 0 35.5 6t7.5 39l-51 905q-2 29 -13 33t-54 4q-23 0 -31 -5t-10 -30z" />
<glyph unicode="&#xc2;" horiz-adv-x="1366" d="M0 537h1243v-537h123v657h-123h-1243v-120z" />
<glyph unicode="&#xc4;" horiz-adv-x="811" d="M-86 -299q0 -41 31.5 -66.5t87.5 -25.5q35 0 73.5 13t80.5 46t82 86t75 131q20 49 34.5 95.5t25 97.5t18.5 109.5t16 127.5l56 537h168q25 0 34 8t9 58q0 20 -12.5 23t-26.5 3h-170q-8 23 -13.5 46.5t-5.5 70.5q0 16 2 58t16.5 86t43 78t84.5 34q8 0 31.5 -1t29.5 1 q29 4 47.5 24.5t18.5 51.5q0 41 -26 58t-60 17q-84 0 -155 -56t-114 -138q-20 -43 -34.5 -91t-23.5 -93.5t-14.5 -84t-7.5 -61.5h-116q-12 0 -19.5 -1t-12.5 -7t-7 -20.5t-2 -41.5q0 -16 8 -19t31 -3h114l-67 -653q-12 -86 -20.5 -144.5t-15.5 -100.5t-14.5 -71.5 t-15.5 -54.5q-16 -47 -38.5 -61.5t-43.5 -14.5q-14 0 -25.5 5t-27.5 16q-12 6 -26.5 9t-22.5 3q-39 0 -59.5 -24.5t-20.5 -59.5z" />
<glyph unicode="&#xc7;" horiz-adv-x="768" d="M55 600q0 -12 8.5 -22.5t47.5 -45.5q61 -57 103 -114.5t95 -138.5q10 -14 20.5 -24.5t22.5 -10.5q33 0 33 35q0 18 -10 34l-109 205q-10 20 -19 41t-9 39t8 36.5t18 37.5l109 202q10 16 10 33q0 16 -12.5 25.5t-22.5 9.5q-14 0 -24.5 -12t-44.5 -62q-68 -98 -116 -148 t-75 -73q-23 -20 -28 -27.5t-5 -19.5zM362 598q0 -6 1.5 -10t7.5 -11.5t17 -17.5t30 -27q31 -27 54.5 -54t47 -58t47 -66t49.5 -75q10 -12 20.5 -23.5t25.5 -11.5q12 0 22 9t10 26q0 10 -4 17t-8 17l-109 205q-10 20 -19 41t-9 39t8 36.5t18 37.5l109 202q10 16 10 33 q0 16 -12 25.5t-23 9.5q-12 0 -23 -12t-46 -62q-66 -96 -116 -147t-73 -74q-23 -20 -29 -27.5t-6 -21.5z" />
<glyph unicode="&#xc8;" horiz-adv-x="768" d="M74 907q0 -10 4 -17t8 -18l107 -204q10 -20 20 -41t10 -39t-8 -37t-18 -37l-109 -203q-10 -16 -10 -32t11 -25.5t24 -9.5q12 0 23 12t46 61q66 96 115 147.5t74 74.5q23 20 29 27t6 22q0 10 -9.5 21.5t-46.5 45.5q-59 55 -102 111.5t-96 140.5q-10 12 -20.5 23.5 t-25.5 11.5q-12 0 -22 -9t-10 -26zM381 907q0 -10 4 -18t8 -17l109 -204q10 -20 19 -41t9 -39t-8 -37t-18 -37l-109 -203q-10 -16 -10 -32t12.5 -25.5t22.5 -9.5q12 0 23.5 12t45.5 61q68 98 116 148.5t73 73.5q23 20 29 27t6 20q0 14 -8.5 24.5t-47.5 44.5 q-61 57 -103 114.5t-95 137.5q-10 14 -20.5 24.5t-24.5 10.5q-12 0 -22.5 -9t-10.5 -26z" />
<glyph unicode="&#xc9;" horiz-adv-x="2048" d="M213 115q0 -59 39 -93t88 -34t87 34t40 87q2 57 -36 94t-91 37q-20 0 -43 -7.5t-41 -22.5t-30.5 -39t-12.5 -56zM895 115q0 -59 39 -93t88 -34t87 34t40 87q2 57 -36 94t-91 37q-20 0 -43 -7.5t-41 -22.5t-30.5 -39t-12.5 -56zM1577 115q0 -59 39 -93t88 -34t87 34t40 87 q2 57 -36 94t-91 37q-20 0 -43 -7.5t-41 -22.5t-30.5 -39t-12.5 -56z" />
<glyph unicode="&#xcb;" horiz-adv-x="1236" d="M0 18q0 -14 11.5 -16t21.5 -2h96q20 0 27.5 4t17.5 29l199 536h440l203 -538q10 -23 17 -27t34 -4h141q12 0 20.5 2t8.5 16q0 8 -2 15.5t-6 17.5l-533 1368q-8 16 -13 20.5t-15 6.5h-88q-16 0 -23.5 -5t-15.5 -26l-531 -1364q0 -4 -5 -17.5t-5 -15.5zM322 1812 q0 -35 13 -52t27 -29l218 -154q8 -6 17 -11t19 -5q16 0 27.5 14t11.5 37q0 29 -24 53l-193 199q-10 10 -22.5 19t-30.5 9q-23 0 -43 -21.5t-20 -58.5zM416 686l178 490l176 -490h-354z" />
<glyph unicode="&#xcc;" horiz-adv-x="1236" d="M0 18q0 -14 11.5 -16t21.5 -2h96q20 0 27.5 4t17.5 29l199 536h440l203 -538q10 -23 17 -27t34 -4h141q12 0 20.5 2t8.5 16q0 8 -2 15.5t-6 17.5l-533 1368q-8 16 -13 20.5t-15 6.5h-88q-16 0 -23.5 -5t-15.5 -26l-531 -1364q0 -4 -5 -17.5t-5 -15.5zM287 1622 q0 -43 32 -43q14 0 23.5 10t40.5 53q16 16 33.5 28.5t54.5 12.5q31 0 53.5 -11t69.5 -44q43 -29 75.5 -45t82.5 -16q55 0 92 22.5t59.5 53t31.5 63.5t9 53q0 16 -8 27.5t-25 11.5q-12 0 -20 -9t-35 -46q-16 -18 -33.5 -32.5t-56.5 -14.5q-37 0 -65.5 14t-69.5 43 q-35 25 -67 41t-79 16q-55 0 -94 -23.5t-61.5 -54t-32.5 -62.5t-10 -48zM416 686l178 490l176 -490h-354z" />
<glyph unicode="&#xcd;" horiz-adv-x="1449" d="M72 723q0 -168 50 -306t138 -237.5t208 -155t261 -55.5q147 0 269 61.5t209 169t133 253t38 313.5q-6 133 -49 261t-124 228.5t-198.5 162t-275.5 61.5q-170 0 -295 -66.5t-205.5 -174.5t-119.5 -243t-39 -272zM285 735q0 88 12 173t42 159t78 135.5t118 102.5 q90 51 188 51q57 0 132 -25.5t142.5 -91t115.5 -181.5t52 -298q0 -43 -1 -97.5t-11 -116t-30.5 -124t-57.5 -119.5q-66 -102 -158 -149.5t-180 -47.5q-70 0 -136.5 27t-122.5 79t-99 129t-64 179q-20 94 -20 215zM393 1622q0 -43 33 -43q14 0 23.5 10t39.5 53q16 16 34 28.5 t55 12.5q31 0 53 -11t69 -44q43 -29 76 -45t82 -16q55 0 92 22.5t59.5 53t32 63.5t9.5 53q0 16 -8.5 27.5t-24.5 11.5q-12 0 -20.5 -9t-34.5 -46q-16 -18 -34 -32.5t-57 -14.5q-37 0 -65.5 14t-69.5 43q-35 25 -66.5 41t-78.5 16q-55 0 -94 -23.5t-61.5 -54t-33 -62.5 t-10.5 -48z" />
<glyph unicode="&#xce;" horiz-adv-x="1921" d="M72 727q0 -160 43 -298t123.5 -240.5t197.5 -161t264 -58.5q86 0 149.5 18.5t107.5 43t71 50t41 40.5v-21v-32q0 -16 1 -30.5t1 -17.5q4 -16 13.5 -18t27.5 -2h721q10 0 21.5 4t11.5 23v28v31q0 16 -1 27.5t-3 13.5q-4 6 -14.5 7t-14.5 1h-573v559h501q4 0 13.5 1t15.5 7 q4 4 5 35t1 54t-7 28.5t-30 5.5h-499v490h573q6 0 15.5 1t13.5 7q4 4 4 33v53q0 23 -5.5 30t-27.5 7h-723q-16 0 -25.5 -3t-13.5 -16q0 -2 -1 -16t-1 -31v-32v-19q-23 23 -54.5 49.5t-74.5 48t-100.5 36t-132.5 14.5q-147 0 -265 -56.5t-200 -157t-126 -237.5t-44 -299z M279 739q0 154 37.5 269.5t100 194.5t143.5 118t165 39q43 0 102.5 -16.5t113.5 -59.5t91 -118.5t37 -196.5v-525q0 -27 -1 -54.5t-9 -57t-25.5 -60t-50.5 -65.5q-37 -39 -98.5 -73t-151.5 -34q-86 0 -168 39t-145.5 119t-102 200t-38.5 281z" />
<glyph unicode="&#xcf;" horiz-adv-x="1622" d="M66 535q0 -104 25.5 -206t80.5 -179.5t141 -126t205 -48.5q86 0 144.5 26t96.5 62.5t60.5 77.5t36.5 72q39 -88 91 -137t102.5 -70.5t90.5 -26t54 -4.5q96 0 166 40t115 97.5t65.5 118t20.5 103.5q0 10 -5.5 32.5t-35.5 22.5q-20 0 -30.5 -14.5t-29.5 -48.5 q-10 -20 -27.5 -51t-47 -61t-70.5 -51.5t-98 -21.5q-55 0 -110.5 27t-98.5 92q-23 35 -37.5 74t-23.5 77t-13 73.5t-6 62.5l567 86q25 4 45.5 16.5t20.5 52.5q0 31 -15.5 94.5t-56.5 128t-112.5 112.5t-184.5 48q-35 0 -80 -8t-90 -34.5t-87 -72.5t-73 -124q-16 31 -40.5 73 t-65.5 78.5t-100.5 62t-145.5 25.5q-111 0 -194 -46t-139 -122.5t-83.5 -176t-27.5 -205.5zM248 553q0 72 13 146.5t44 136t79 101.5t118 40q72 0 121 -44t79.5 -107.5t46 -131t19.5 -114.5q2 -23 3 -44.5t1 -43.5q0 -33 -3 -80t-15.5 -96.5t-36 -95.5t-62.5 -77 q-25 -18 -56.5 -30.5t-68.5 -12.5q-55 0 -105 31t-90 89.5t-63.5 142t-23.5 190.5zM928 645q4 57 17 113.5t44 105.5q29 47 76 76t100 29q14 0 45 -6.5t63 -32t60.5 -76.5t36.5 -141z" />
<glyph unicode="&#xd0;" horiz-adv-x="1110" d="M119 545q4 -14 13 -17.5t30 -3.5h786q23 0 31 3t12 20v59q0 27 -10 32t-33 5h-788q-20 0 -30.5 -5t-10.5 -28v-65z" />
<glyph unicode="&#xd1;" horiz-adv-x="1409" d="M119 586q0 -25 7 -29t30 -6h1099q27 0 31 10t4 53q0 20 -8 24.5t-27 4.5h-1103q-25 0 -29 -9t-4 -48z" />
<glyph unicode="&#xd2;" horiz-adv-x="811" d="M137 1221q0 -88 42 -126t85 -38q41 0 67.5 27.5t26.5 64.5q0 31 -14 51.5t-31 38.5q-14 14 -26.5 30.5t-12.5 43.5q0 41 25.5 73.5t48.5 55.5q10 12 16.5 20t6.5 23q0 14 -9.5 24.5t-25.5 10.5q-14 0 -47 -20.5t-67 -58.5t-59.5 -93.5t-25.5 -126.5zM440 1221 q0 -45 12.5 -77t31 -51.5t41 -27.5t42.5 -8q41 0 68 25.5t27 66.5q0 31 -14.5 51.5t-31.5 38.5q-14 14 -26 30.5t-12 43.5q0 41 26.5 73.5t46.5 55.5q10 12 17.5 20t7.5 23q0 14 -10.5 24.5t-26.5 10.5q-14 0 -47 -20.5t-66.5 -58.5t-59.5 -93.5t-26 -126.5z" />
<glyph unicode="&#xd3;" horiz-adv-x="811" d="M135 1092q0 -14 10.5 -24.5t26.5 -10.5q14 0 47 20.5t66.5 58.5t59.5 93t26 125q0 47 -12.5 77.5t-31 51t-41 29t-42.5 8.5q-41 0 -69 -27t-28 -68q0 -31 15.5 -51t32.5 -37q14 -14 25 -30.5t11 -44.5q0 -41 -25 -73.5t-48 -55.5q-10 -10 -16.5 -18.5t-6.5 -22.5z M438 1092q0 -16 10.5 -25.5t26.5 -9.5q14 0 47 20.5t67 58.5t59.5 94t25.5 126q0 88 -42 126t-85 38q-41 0 -67.5 -28t-26.5 -67q0 -31 14 -51t31 -37q14 -14 26.5 -30.5t12.5 -44.5q0 -39 -25.5 -72.5t-48.5 -56.5q-25 -20 -25 -41z" />
<glyph unicode="&#xd4;" horiz-adv-x="512" d="M137 1221q0 -45 12.5 -77t32 -51.5t42 -27.5t42.5 -8q41 0 68.5 26.5t27.5 65.5q0 31 -14 50.5t-33 39.5q-14 14 -26.5 30.5t-12.5 43.5q0 41 26.5 73.5t49.5 55.5q10 12 16.5 20t6.5 23q0 14 -10.5 24.5t-26.5 10.5q-14 0 -48 -20.5t-68 -58.5t-59.5 -93.5t-25.5 -126.5 z" />
<glyph unicode="&#xd5;" horiz-adv-x="512" d="M137 1092q0 -35 35 -35q16 0 49 20.5t68 58.5t60.5 94t25.5 126q0 45 -12.5 76.5t-32 51t-42 28t-42.5 8.5q-41 0 -68.5 -27t-27.5 -68q0 -31 14 -50t33 -38q14 -14 26.5 -30.5t12.5 -42.5q0 -41 -26.5 -74.5t-49.5 -56.5q-10 -10 -16.5 -18.5t-6.5 -22.5z" />
<glyph unicode="&#xd6;" d="M0 535h1024v120h-1024v-120zM422 328q0 -43 28.5 -67.5t69.5 -24.5q29 0 59.5 22.5t30.5 69.5q0 49 -32.5 71.5t-63.5 22.5q-41 0 -66.5 -28.5t-25.5 -65.5zM422 860q0 -43 28.5 -67.5t65.5 -24.5q41 0 67.5 25.5t26.5 66.5q0 51 -32.5 72.5t-63.5 21.5 q-29 0 -60.5 -23.5t-31.5 -70.5z" />
<glyph unicode="&#xd8;" horiz-adv-x="937" d="M0 -393q0 -37 19.5 -56.5t44 -28.5t48 -10t31.5 -1q82 0 141.5 31.5t102.5 81.5t72.5 111.5t50.5 119.5l418 1146q8 20 9 26.5t1 10.5q0 23 -29 23h-100q-12 -2 -18.5 -8t-14.5 -29l-266 -788l-289 788q-10 25 -16 31t-31 6h-121q-8 0 -22.5 -2t-14.5 -23q0 -4 2 -10 t11 -25l397 -1001q-31 -96 -57.5 -158.5t-53 -99.5t-55.5 -51.5t-61 -14.5q-6 0 -22.5 3.5t-34 6.5t-33 6t-21.5 3q-41 0 -64.5 -26.5t-23.5 -61.5zM190 1358q0 -49 34 -81t81 -32q49 0 79.5 33t30.5 82t-31.5 79.5t-78.5 30.5q-45 0 -80 -29.5t-35 -82.5zM553 1358 q0 -49 32.5 -81t79.5 -32q49 0 81 33t32 82t-33 79.5t-80 30.5q-45 0 -78.5 -29.5t-33.5 -82.5z" />
<glyph unicode="&#xd9;" horiz-adv-x="1110" d="M0 1425q0 -6 2 -11t12 -23l432 -729v-629q0 -18 6.5 -25.5t26.5 -7.5h133q23 0 32 4t9 29v618l443 740q8 14 10 20t2 14q0 4 -4 12.5t-21 8.5h-114q-14 -2 -19.5 -6t-19.5 -27l-350 -598l-353 602q-10 20 -18 24.5t-31 4.5h-147q-12 0 -21.5 -4t-9.5 -17zM248 1718 q0 -57 37 -85.5t82 -28.5q61 0 88.5 38.5t27.5 79.5q0 55 -36.5 84t-77.5 29q-45 0 -83 -30.5t-38 -86.5zM623 1718q0 -57 36.5 -85.5t81.5 -28.5q59 0 88 38.5t29 79.5q0 55 -37 84t-78 29q-45 0 -82.5 -30.5t-37.5 -86.5z" />
<glyph unicode="&#xda;" horiz-adv-x="256" d="M-289 18q0 -14 9.5 -16t43.5 -2q20 0 27.5 4t22.5 31l716 1356q10 20 13.5 25t3.5 14q0 12 -12.5 14t-40.5 2q-20 0 -28.5 -7t-21.5 -30l-720 -1356q-8 -18 -10.5 -23t-2.5 -12z" />
<glyph unicode="&#xdb;" horiz-adv-x="1366" d="M119 223l92 -92l151 150q31 -23 63 -42.5t68.5 -35t83 -24.5t105.5 -9q61 0 108.5 9t84 24.5t67.5 36t62 41.5l149 -154l94 92l-151 154q14 18 33.5 47t37 67.5t29.5 90t12 114.5q0 68 -11 118t-27.5 89t-36 67.5t-35.5 49.5l151 149l-94 95l-149 -150q-25 18 -54.5 37.5 t-68.5 36t-87 27t-110 10.5q-61 0 -109.5 -10.5t-87 -27t-69.5 -37t-58 -38.5l-149 149l-92 -92l149 -149q-14 -18 -33.5 -47t-37 -68t-29.5 -90t-12 -115q0 -59 9 -105t25.5 -84t37 -69.5t40.5 -64.5zM283 694q0 94 32.5 169t89 127t130 81t153.5 29q76 0 147.5 -29 t127 -81t88 -127t32.5 -167q0 -88 -31.5 -162.5t-85 -129t-126 -84t-154.5 -29.5q-86 0 -160.5 31.5t-128 86t-84 128t-30.5 157.5z" />
<glyph unicode="&#xdc;" horiz-adv-x="468" d="M59 600q0 -12 8.5 -22.5t47.5 -45.5q61 -57 103 -114.5t95 -138.5q10 -14 20.5 -24.5t24.5 -10.5q12 0 22.5 9t10.5 26q0 10 -4 18l-8 16l-109 205q-10 20 -19 41t-9 39t8 36.5t18 37.5l109 202q10 16 10 33q0 16 -12.5 25.5t-22.5 9.5q-12 0 -23.5 -12t-45.5 -62 q-66 -98 -115 -148t-74 -73q-23 -20 -29 -27.5t-6 -19.5z" />
<glyph unicode="&#xdd;" horiz-adv-x="468" d="M78 907q0 -10 4 -18t8 -17l109 -204q10 -20 19 -41t9 -39t-8 -37t-18 -37l-109 -203q-10 -16 -10 -32t12 -25.5t23 -9.5q12 0 23.5 12t45.5 61q68 98 116 148.5t73 73.5q23 20 29 27t6 20q0 14 -8.5 24.5t-47.5 44.5q-61 57 -103 114.5t-95 137.5q-10 14 -20.5 24.5 t-24.5 10.5q-12 0 -22.5 -9t-10.5 -26z" />
<glyph unicode="&#xde;" horiz-adv-x="980" d="M20 997q0 -23 8.5 -25.5t30.5 -2.5h115v-924q0 -27 6 -36t31 -9h106q20 0 30.5 7t10.5 36v926h166q18 0 29.5 3t11.5 23q0 45 -5 56.5t-36 9.5h-170q-10 23 -18 54.5t-8 101.5q0 100 31.5 157.5t101.5 57.5q8 0 31.5 -1t31.5 1q23 4 42.5 21t19.5 50q0 39 -27 59.5 t-65 20.5q-86 0 -153 -57.5t-103 -134.5q-35 -78 -47.5 -169.5t-16.5 -160.5h-117q-29 0 -33 -10.5t-4 -53.5zM657 1350q0 -43 28 -75t81 -32t83 34t28 79q-2 47 -33 74.5t-76 27.5q-47 0 -79 -30.5t-32 -77.5zM676 39q0 -23 4 -31t27 -8h110q23 0 32 6t9 33v983q0 25 -8 32 t-33 7h-106q-27 0 -31 -9.5t-4 -29.5v-983z" />
<glyph unicode="&#xdf;" horiz-adv-x="980" d="M20 997q0 -23 8.5 -25.5t30.5 -2.5h115v-924q0 -27 6 -36t31 -9h106q20 0 30.5 7t10.5 36v926h166q20 0 30.5 3t10.5 23q0 45 -5 56.5t-36 9.5h-170q-10 23 -18 54.5t-8 101.5q0 100 31.5 157.5t101.5 57.5q8 0 32.5 -1t30.5 1q25 4 43.5 21t18.5 50q0 39 -25.5 59.5 t-66.5 20.5q-86 0 -153 -57.5t-103 -134.5q-35 -78 -47.5 -169.5t-16.5 -160.5h-117q-29 0 -33 -10.5t-4 -53.5zM678 37q0 -25 7 -31t32 -6h104q20 0 29.5 6t9.5 31v1497q0 23 -8 29t-31 6h-102q-20 0 -30.5 -5t-10.5 -28v-1499z" />
<glyph unicode="&#xe0;" horiz-adv-x="980" d="M66 428q0 -20 7 -27.5t29 -5.5l326 33l-35 -389q-2 -27 6.5 -33t28.5 -6h123q25 0 31 8t4 31l-27 389l322 -33q23 -4 30 5.5t7 27.5v104q0 23 -7.5 28t-27.5 3l-324 -31v465l322 -30q23 -2 31 5t6 29v101q0 18 -4.5 26.5t-26.5 6.5l-328 -33l27 307q4 18 0 28.5t-31 8.5 h-127q-20 2 -29.5 -4t-5.5 -33l35 -307l-326 33q-23 4 -31 -3.5t-5 -29.5v-101q0 -23 8 -28.5t28 -3.5l326 30v-467l-326 31q-23 2 -31 -4t-5 -29v-102z" />
<glyph unicode="&#xe1;" horiz-adv-x="512" d="M127 561q0 -59 39 -93t88 -34t87 34t40 87q2 57 -36 94t-91 37q-20 0 -43 -7t-41 -22.5t-30.5 -39t-12.5 -56.5z" />
<glyph unicode="&#xe2;" horiz-adv-x="512" d="M137 -186q0 -35 35 -35q16 0 49 20.5t68 58.5t60.5 93t25.5 125q0 47 -12.5 77.5t-32 50t-42 28t-42.5 8.5q-41 0 -68.5 -26t-27.5 -67q0 -31 14 -50t33 -38q14 -14 26.5 -31.5t12.5 -43.5q0 -41 -26.5 -73.5t-49.5 -55.5q-10 -10 -16.5 -19.5t-6.5 -21.5z" />
<glyph unicode="&#xe3;" horiz-adv-x="811" d="M135 -186q0 -35 37 -35q14 0 47 20.5t66.5 58.5t59.5 93t26 125q0 47 -12.5 77.5t-31 50t-41 28t-42.5 8.5q-41 0 -69 -26t-28 -67q0 -31 15.5 -51t32.5 -37q14 -16 26 -32.5t12 -42.5q0 -41 -26 -73.5t-49 -55.5q-10 -10 -16.5 -19.5t-6.5 -21.5zM438 -186 q0 -16 10.5 -25.5t26.5 -9.5q14 0 47 19.5t67 58.5t59.5 94t25.5 127q0 88 -42 126t-85 38q-41 0 -67.5 -28t-26.5 -67q0 -31 14 -51t31 -37q14 -14 26.5 -30.5t12.5 -44.5q0 -39 -25.5 -72.5t-48.5 -56.5q-12 -12 -18.5 -20.5t-6.5 -20.5z" />
<glyph unicode="&#xe4;" horiz-adv-x="2304" d="M68 991q0 -115 21.5 -203t58 -146t86 -88t106.5 -30q70 0 122 39t86 104.5t50 153t16 183.5q0 104 -19.5 189t-54 145.5t-84.5 94t-112 33.5q-66 0 -117 -33.5t-87 -96t-54 -150.5t-18 -195zM195 1008q0 49 5 114.5t20.5 126t44 101.5t75.5 41t75.5 -38t44 -95.5 t21.5 -126.5t6 -130q0 -39 -4 -106.5t-18 -131t-44 -110.5t-81 -47q-45 0 -73.5 41t-45 102.5t-21.5 131t-5 127.5zM395 18q0 -12 8.5 -14t45.5 -2q20 0 27 4t22 31l716 1354l12.5 25t2.5 14q0 12 -11.5 14t-39.5 2q-20 0 -28.5 -6t-21.5 -31l-720 -1356l-10.5 -21t-2.5 -14 zM1006 449q0 -115 20.5 -202t57 -146.5t87 -89t107.5 -29.5q72 0 123 38.5t85 104t50 153t16 183.5q0 104 -19.5 189t-54 145.5t-85 94.5t-111.5 34q-66 0 -117 -34t-87 -96.5t-54 -150.5t-18 -194zM1133 465q0 49 5 114.5t20.5 126t44 101.5t75.5 41t75.5 -38t44 -95.5 t21.5 -126t6 -129.5q0 -39 -4 -106.5t-18 -131t-44 -111t-81 -47.5q-45 0 -73.5 41t-45 102.5t-21.5 131.5t-5 127zM1690 449q0 -115 20.5 -202t57 -146.5t87 -89t107.5 -29.5q72 0 123 38.5t85 104t50 153t16 183.5q0 104 -19 189t-54 145.5t-85 94.5t-112 34 q-66 0 -117 -34t-87 -96.5t-54 -150.5t-18 -194zM1817 465q0 49 5 114.5t20.5 126t44 101.5t75.5 41t75.5 -38t44 -95.5t21.5 -126t6 -129.5q0 -39 -4 -106.5t-18 -131t-44 -111t-81 -47.5q-45 0 -73.5 41t-45 102.5t-21.5 131.5t-5 127z" />
<glyph unicode="&#xe5;" horiz-adv-x="1236" d="M0 18q0 -14 11.5 -16t21.5 -2h96q20 0 27.5 4t17.5 29l199 536h440l203 -538q10 -23 17 -27t34 -4h141q12 0 20.5 2t8.5 16q0 8 -2 15.5t-6 17.5l-533 1368q-8 16 -13 20.5t-15 6.5h-88q-16 0 -23.5 -5t-15.5 -26l-531 -1364q0 -4 -5 -17.5t-5 -15.5zM317 1591 q0 -14 8.5 -25.5t18.5 -11.5t19.5 6.5t15.5 12.5l168 108q20 16 34.5 24.5t26.5 8.5q14 0 28.5 -9t33.5 -19l170 -113q10 -4 18 -9t16 -5q10 0 19.5 9t9.5 27q0 20 -13 35t-44 37q-78 61 -123 106.5t-61 63.5q-20 23 -30.5 31t-25.5 8q-16 0 -29.5 -12.5t-39.5 -38.5 q-23 -25 -38.5 -42.5t-34 -34.5t-44 -39.5t-68.5 -61.5q-16 -16 -25.5 -27.5t-9.5 -28.5zM416 686l178 490l176 -490h-354z" />
<glyph unicode="&#xe6;" horiz-adv-x="980" d="M135 37q0 -27 9.5 -32t31.5 -5h713q18 0 28.5 5t10.5 28v65q0 25 -9.5 29t-29.5 4h-553v561h467q16 0 24.5 3t12.5 16q2 4 2 30v50q0 23 -11.5 26.5t-27.5 3.5h-467v494h553q35 0 37 22q2 4 2 31v47q0 23 -11.5 27t-27.5 4h-713q-27 0 -34 -11.5t-7 -37.5v-1360z M211 1591q0 -14 8 -25.5t19 -11.5q10 0 19 6.5t15 12.5l168 108q20 16 34.5 24.5t27.5 8.5q14 0 28.5 -9t32.5 -19l170 -113q10 -4 18.5 -9t16.5 -5q10 0 19.5 9t9.5 27q0 20 -13.5 35t-44.5 37q-78 61 -123 106.5t-61 63.5q-20 23 -30.5 31t-24.5 8q-16 0 -29.5 -12.5 t-40.5 -38.5q-23 -25 -38 -42.5t-33.5 -34.5t-44 -39.5t-68.5 -61.5q-16 -16 -25.5 -27.5t-9.5 -28.5z" />
<glyph unicode="&#xe7;" horiz-adv-x="1236" d="M0 18q0 -14 11.5 -16t21.5 -2h96q20 0 27.5 4t17.5 29l199 536h440l203 -538q10 -23 17 -27t34 -4h141q12 0 20.5 2t8.5 16q0 8 -2 15.5t-6 17.5l-533 1368q-8 16 -13 20.5t-15 6.5h-88q-16 0 -23.5 -5t-15.5 -26l-531 -1364q0 -4 -5 -17.5t-5 -15.5zM416 686l178 490 l176 -490h-354zM580 1612q0 -23 11 -37t27 -14q10 0 19.5 5t17.5 11l217 154q14 12 27.5 29.5t13.5 51.5q0 37 -20.5 58.5t-42.5 21.5q-18 0 -30.5 -9t-22.5 -19l-193 -199q-25 -25 -24 -53z" />
<glyph unicode="&#xe8;" horiz-adv-x="980" d="M135 37q0 -27 9.5 -32t31.5 -5h713q18 0 28.5 5t10.5 28v65q0 25 -9.5 29t-29.5 4h-553v561h467q16 0 24.5 3t12.5 16q2 4 2 30v50q0 23 -11.5 26.5t-27.5 3.5h-467v494h553q35 0 37 22q2 4 2 31v47q0 23 -11.5 27t-27.5 4h-713q-27 0 -34 -11.5t-7 -37.5v-1360z M205 1718q0 -57 37 -85.5t82 -28.5q61 0 88.5 38.5t27.5 79.5q0 55 -36.5 84t-77.5 29q-45 0 -83 -30.5t-38 -86.5zM580 1718q0 -57 36.5 -85.5t81.5 -28.5q59 0 88 38.5t29 79.5q0 55 -37 84t-78 29q-45 0 -82.5 -30.5t-37.5 -86.5z" />
<glyph unicode="&#xe9;" horiz-adv-x="980" d="M135 37q0 -27 9.5 -32t31.5 -5h713q18 0 28.5 5t10.5 28v65q0 25 -9.5 29t-29.5 4h-553v561h467q16 0 24.5 3t12.5 16q2 4 2 30v50q0 23 -11.5 26.5t-27.5 3.5h-467v494h553q35 0 37 22q2 4 2 31v47q0 23 -11.5 27t-27.5 4h-713q-27 0 -34 -11.5t-7 -37.5v-1360z M215 1812q0 -35 13.5 -52t27.5 -29l217 -154q8 -6 17.5 -11t19.5 -5q16 0 27.5 14t11.5 37q0 29 -25 53l-192 199q-10 10 -22.5 19t-30.5 9q-23 0 -43.5 -21.5t-20.5 -58.5z" />
<glyph unicode="&#xea;" horiz-adv-x="468" d="M133 41q0 -29 10.5 -35t28.5 -6h123q23 0 32 6t9 35v1368q0 25 -9.5 31t-31.5 6h-123q-23 2 -31 -7t-8 -34v-1364zM197 1612q0 -23 11 -37t28 -14q10 0 19 5t17 11l217 154q14 12 27.5 29.5t13.5 51.5q0 37 -20.5 58.5t-42.5 21.5q-18 0 -30.5 -9t-22.5 -19l-193 -199 q-25 -25 -24 -53z" />
<glyph unicode="&#xeb;" horiz-adv-x="468" d="M-66 1591q0 -14 8.5 -25.5t18.5 -11.5t19.5 6.5t15.5 12.5l168 108q20 16 34.5 24.5t26.5 8.5q14 0 28.5 -9t33.5 -19l170 -113q10 -4 18 -9t17 -5q10 0 19 9t9 27q0 20 -13 35t-44 37q-78 61 -123 106.5t-61 63.5q-20 23 -30.5 31t-25.5 8q-16 0 -29.5 -12.5 t-39.5 -38.5q-23 -25 -38.5 -42.5t-34 -34.5t-44 -39.5t-68.5 -61.5q-16 -16 -25.5 -27.5t-9.5 -28.5zM133 41q0 -29 10.5 -35t28.5 -6h123q23 0 32 6t9 35v1368q0 25 -9.5 31t-31.5 6h-123q-23 2 -31 -7t-8 -34v-1364z" />
<glyph unicode="&#xec;" horiz-adv-x="468" d="M-72 1718q0 -57 37 -85.5t82 -28.5q61 0 89 38.5t28 79.5q0 55 -37 84t-78 29q-45 0 -83 -30.5t-38 -86.5zM133 41q0 -29 10.5 -35t28.5 -6h123q23 0 32 6t9 35v1368q0 25 -9.5 31t-31.5 6h-123q-23 2 -31 -7t-8 -34v-1364zM303 1718q0 -57 37 -85.5t82 -28.5 q59 0 88 38.5t29 79.5q0 55 -37 84t-78 29q-45 0 -83 -30.5t-38 -86.5z" />
<glyph unicode="&#xed;" horiz-adv-x="468" d="M-61 1812q0 -35 13 -52t28 -29l217 -154q8 -6 17 -11t19 -5q16 0 27.5 14t11.5 37q0 29 -24 53l-193 199q-10 10 -22.5 19t-30.5 9q-23 0 -43 -21.5t-20 -58.5zM133 41q0 -29 10.5 -35t28.5 -6h123q23 0 32 6t9 35v1368q0 25 -9.5 31t-31.5 6h-123q-23 2 -31 -7t-8 -34 v-1364z" />
<glyph unicode="&#xee;" horiz-adv-x="1449" d="M72 723q0 -168 50 -306t138 -237.5t208 -155t261 -55.5q147 0 269 61.5t209 169t133 253t38 313.5q-6 133 -49 261t-124 228.5t-198.5 162t-275.5 61.5q-170 0 -295 -66.5t-205.5 -174.5t-119.5 -243t-39 -272zM285 735q0 88 12 173t42 159t78 135.5t118 102.5 q90 51 188 51q57 0 132 -25.5t142.5 -91t115.5 -181.5t52 -298q0 -43 -1 -97.5t-11 -116t-30.5 -124t-57.5 -119.5q-66 -102 -158 -149.5t-180 -47.5q-70 0 -136.5 27t-122.5 79t-99 129t-64 179q-20 94 -20 215zM686 1612q0 -23 11.5 -37t27.5 -14q10 0 19.5 5t17.5 11 l217 154q14 12 27.5 29.5t13.5 51.5q0 37 -20.5 58.5t-43.5 21.5q-18 0 -30.5 -9t-22.5 -19l-192 -199q-25 -25 -25 -53z" />
<glyph unicode="&#xef;" horiz-adv-x="1449" d="M72 723q0 -168 50 -306t138 -237.5t208 -155t261 -55.5q147 0 269 61.5t209 169t133 253t38 313.5q-6 133 -49 261t-124 228.5t-198.5 162t-275.5 61.5q-170 0 -295 -66.5t-205.5 -174.5t-119.5 -243t-39 -272zM285 735q0 88 12 173t42 159t78 135.5t118 102.5 q90 51 188 51q57 0 132 -25.5t142.5 -91t115.5 -181.5t52 -298q0 -43 -1 -97.5t-11 -116t-30.5 -124t-57.5 -119.5q-66 -102 -158 -149.5t-180 -47.5q-70 0 -136.5 27t-122.5 79t-99 129t-64 179q-20 94 -20 215zM424 1591q0 -14 8 -25.5t19 -11.5q10 0 19 6.5t15 12.5 l168 108q20 16 34.5 24.5t27.5 8.5q14 0 28.5 -9t32.5 -19l170 -113q10 -4 18.5 -9t16.5 -5q10 0 19.5 9t9.5 27q0 20 -13.5 35t-44.5 37q-78 61 -123 106.5t-61 63.5q-20 23 -30.5 31t-24.5 8q-16 0 -29.5 -12.5t-40.5 -38.5q-23 -25 -38 -42.5t-33.5 -34.5t-44 -39.5 t-68.5 -61.5q-16 -16 -25.5 -27.5t-9.5 -28.5z" />
<glyph unicode="&#xf1;" horiz-adv-x="1449" d="M72 723q0 -168 50 -306t138 -237.5t208 -155t261 -55.5q147 0 269 61.5t209 169t133 253t38 313.5q-6 133 -49 261t-124 228.5t-198.5 162t-275.5 61.5q-170 0 -295 -66.5t-205.5 -174.5t-119.5 -243t-39 -272zM285 735q0 88 12 173t42 159t78 135.5t118 102.5 q90 51 188 51q57 0 132 -25.5t142.5 -91t115.5 -181.5t52 -298q0 -43 -1 -97.5t-11 -116t-30.5 -124t-57.5 -119.5q-66 -102 -158 -149.5t-180 -47.5q-70 0 -136.5 27t-122.5 79t-99 129t-64 179q-20 94 -20 215zM428 1812q0 -35 13.5 -52t27.5 -29l217 -154q8 -6 17.5 -11 t19.5 -5q16 0 27.5 14t11.5 37q0 29 -25 53l-192 199q-10 10 -22.5 19t-30.5 9q-23 0 -43.5 -21.5t-20.5 -58.5z" />
<glyph unicode="&#xf2;" horiz-adv-x="1193" d="M117 459q0 -59 8 -134t47 -145q12 -20 39 -56t76 -71t125.5 -59.5t189.5 -24.5q141 0 247.5 46t170.5 153q43 70 50 134.5t9 127.5v979q0 35 -22 37q-2 0 -14.5 1t-28.5 1h-33h-29q-20 0 -26 -8t-6 -31v-956q0 -59 -5.5 -108.5t-40.5 -102.5q-41 -63 -109.5 -92 t-143.5 -29q-111 0 -172.5 44t-89 105.5t-32.5 124t-5 99.5v917q0 27 -7.5 32t-31.5 5h-129q-23 0 -30 -6t-7 -31v-952zM559 1612q0 -23 11.5 -37t27.5 -14q10 0 19.5 5t17.5 11l217 154q14 12 27.5 29.5t13.5 51.5q0 37 -20.5 58.5t-43.5 21.5q-18 0 -30.5 -9t-22.5 -19 l-192 -199q-25 -25 -25 -53z" />
<glyph unicode="&#xf3;" horiz-adv-x="1193" d="M117 459q0 -59 8 -134t47 -145q12 -20 39 -56t76 -71t125.5 -59.5t189.5 -24.5q141 0 247.5 46t170.5 153q43 70 50 134.5t9 127.5v979q0 35 -22 37q-2 0 -14.5 1t-28.5 1h-33h-29q-20 0 -26 -8t-6 -31v-956q0 -59 -5.5 -108.5t-40.5 -102.5q-41 -63 -109.5 -92 t-143.5 -29q-111 0 -172.5 44t-89 105.5t-32.5 124t-5 99.5v917q0 27 -7.5 32t-31.5 5h-129q-23 0 -30 -6t-7 -31v-952zM297 1591q0 -14 8 -25.5t19 -11.5q10 0 19 6.5t15 12.5l168 108q20 16 34.5 24.5t27.5 8.5q14 0 28.5 -9t32.5 -19l170 -113q10 -4 18.5 -9t16.5 -5 q10 0 19.5 9t9.5 27q0 20 -13.5 35t-44.5 37q-78 61 -123 106.5t-61 63.5q-20 23 -30.5 31t-24.5 8q-16 0 -29.5 -12.5t-40.5 -38.5q-23 -25 -38 -42.5t-33.5 -34.5t-44 -39.5t-68.5 -61.5q-16 -16 -25.5 -27.5t-9.5 -28.5z" />
<glyph unicode="&#xf4;" horiz-adv-x="1193" d="M117 459q0 -59 8 -134t47 -145q12 -20 39 -56t76 -71t125.5 -59.5t189.5 -24.5q141 0 247.5 46t170.5 153q43 70 50 134.5t9 127.5v979q0 35 -22 37q-2 0 -14.5 1t-28.5 1h-33h-29q-20 0 -26 -8t-6 -31v-956q0 -59 -5.5 -108.5t-40.5 -102.5q-41 -63 -109.5 -92 t-143.5 -29q-111 0 -172.5 44t-89 105.5t-32.5 124t-5 99.5v917q0 27 -7.5 32t-31.5 5h-129q-23 0 -30 -6t-7 -31v-952zM301 1812q0 -35 13.5 -52t27.5 -29l217 -154q8 -6 17.5 -11t19.5 -5q16 0 27.5 14t11.5 37q0 29 -25 53l-192 199q-10 10 -22.5 19t-30.5 9 q-23 0 -43.5 -21.5t-20.5 -58.5z" />
<glyph unicode="&#xf5;" horiz-adv-x="425" d="M121 39q0 -23 4 -31t27 -8h110q23 0 32 5t9 34v983q0 25 -8 32t-33 7h-106q-27 0 -31 -9.5t-4 -29.5v-983z" />
<glyph unicode="&#xf6;" horiz-adv-x="512" d="M-18 1192q0 -16 9 -24.5t19 -8.5q12 0 35 19l150 102q10 8 24 16.5t31 8.5q14 0 26.5 -6.5t26.5 -14.5l166 -106q8 -4 16.5 -9.5t16.5 -5.5q10 0 19 10.5t9 24.5q0 16 -8 25.5t-47 42.5q-74 59 -111.5 98t-72.5 74q-6 8 -16.5 17t-26.5 9t-24.5 -9t-24.5 -32 q-37 -47 -81 -88t-102 -90q-18 -16 -26 -26.5t-8 -26.5z" />
<glyph unicode="&#xf7;" horiz-adv-x="512" d="M-53 1260q0 -23 11 -32t22 -9q16 0 24 9t19 27q12 18 33.5 40t70.5 22q35 0 63.5 -16.5t81.5 -57.5q16 -12 44 -25.5t71 -13.5q47 0 81 21.5t55.5 50.5t31.5 59.5t10 50.5q0 23 -9 32t-19 9q-14 0 -20.5 -7t-18.5 -25q-16 -25 -38 -45.5t-63 -20.5q-35 0 -60.5 13.5 t-74.5 48.5q-33 23 -61.5 37t-67.5 14q-49 0 -84 -21.5t-57.5 -51.5t-33.5 -60.5t-11 -48.5z" />
<glyph unicode="&#xf8;" horiz-adv-x="512" d="M-23 1346q0 -12 1.5 -22.5t1.5 -12.5q4 -16 12 -18.5t28 -2.5h480q35 0 37 23v69q0 29 -9.5 33t-33.5 4h-480q-16 0 -26.5 -5t-10.5 -28v-16v-24z" />
<glyph unicode="&#xf9;" horiz-adv-x="512" d="M12 1415q0 -41 14.5 -85t44 -81t77 -60.5t112.5 -23.5q49 0 93 17.5t76 49.5t51.5 78t19.5 101q0 23 -8.5 37t-28.5 14q-18 0 -23.5 -11t-15.5 -52q-35 -113 -164 -113q-49 0 -81 13.5t-50 33t-27.5 44.5t-17.5 50q-4 12 -10 23.5t-23 11.5q-20 0 -29.5 -13t-9.5 -34z " />
<glyph unicode="&#xfa;" horiz-adv-x="512" d="M143 1358q0 -51 33 -82t80 -31q49 0 81 32t32 81q0 51 -33 81.5t-80 30.5q-43 0 -78 -29.5t-35 -82.5z" />
<glyph unicode="&#xfb;" horiz-adv-x="512" d="M100 1323q0 -72 46.5 -114t107.5 -42q63 0 108.5 43t47.5 113q0 74 -48.5 114t-107.5 40q-66 0 -110 -43t-44 -111zM174 1325q0 29 20.5 53.5t61.5 24.5q37 0 57.5 -21.5t22.5 -54.5q2 -41 -24.5 -62.5t-55.5 -21.5q-33 0 -57.5 22.5t-24.5 59.5z" />
<glyph unicode="&#xfc;" horiz-adv-x="512" d="M53 -381q0 -18 21.5 -31.5t50.5 -22.5t59.5 -13.5t51.5 -4.5q51 0 92 14.5t69.5 39t44 55.5t15.5 63q0 27 -11.5 52.5t-34 46t-57.5 32t-82 9.5l33 141h-94l-21 -166q-4 -29 8.5 -34t34.5 -7q10 0 28 -3t34 -10t28.5 -21.5t12.5 -39.5q0 -47 -36 -68.5t-83 -21.5 q-33 0 -53.5 3t-36.5 8q-23 6 -30 8t-11 2q-20 0 -26.5 -12.5t-6.5 -18.5z" />
<glyph unicode="&#xfd;" horiz-adv-x="512" d="M27 1202q0 -16 10 -26.5t26 -10.5q14 0 23.5 8.5t15.5 16.5l131 170q10 12 19.5 27.5t9.5 35.5q0 25 -16.5 41.5t-38.5 16.5q-27 0 -41 -17.5t-25 -33.5l-100 -185q-10 -23 -12 -28t-2 -15zM246 1202q0 -16 11 -26.5t26 -10.5q16 0 24 8.5t15 16.5l133 170q10 12 19 27.5 t9 35.5q0 25 -16 41.5t-39 16.5q-27 0 -41 -17.5t-25 -33.5l-100 -185q-10 -23 -13 -28t-3 -15z" />
<glyph unicode="&#xfe;" horiz-adv-x="512" d="M84 -199q0 -31 12.5 -60.5t36 -53t58 -39t81.5 -15.5q63 0 109.5 24t46.5 50q0 14 -9 22.5t-22 8.5q-8 0 -16 -3t-41 -14q-8 -2 -16.5 -3t-18.5 -1q-51 0 -71.5 31t-20.5 66q0 31 14.5 60.5t36 56t45 47t39.5 34.5q23 20 30 26.5t13 16.5q-51 -14 -88 -27.5t-96 -50.5 q-78 -51 -100.5 -96t-22.5 -80z" />
<glyph unicode="&#xff;" horiz-adv-x="512" d="M-18 1425q0 -16 9 -25t48 -42q72 -57 111.5 -97t70.5 -75q8 -8 18.5 -17.5t26.5 -9.5q14 0 23.5 9.5t25.5 31.5q37 47 81 88t102 90q18 16 26 26.5t8 27.5q0 16 -9 24t-19 8q-12 0 -35 -18l-150 -103q-10 -8 -24 -16t-31 -8q-16 0 -28.5 6t-24.5 14l-166 107 q-8 4 -16.5 9t-16.5 5q-10 0 -20 -10t-10 -25z" />
<glyph unicode="&#x152;" horiz-adv-x="894" d="M55 254q0 -104 48.5 -160.5t110.5 -83t120.5 -31t79.5 -4.5q33 0 71.5 3.5t76.5 9.5t75 17t65 26q57 31 71.5 72.5t17.5 111.5v543q0 41 -6.5 97t-35 107.5t-90 87t-174.5 35.5q-82 0 -150.5 -20.5t-117.5 -55t-76.5 -77.5t-27.5 -90q0 -49 29.5 -67.5t52.5 -18.5 q47 0 64 29.5t28 58.5q6 16 17 38.5t30.5 43t49.5 36t75 15.5q57 0 89 -22.5t46 -56.5t16 -72t2 -68v-105q-123 -37 -225 -70.5t-176 -76.5t-115 -103.5t-41 -148.5zM242 281q0 59 26.5 99t74.5 70.5t116.5 55t152.5 51.5v-321q0 -20 -3 -46t-18.5 -49.5t-48 -39 t-91.5 -15.5q-78 0 -121 27.5t-62.5 63.5t-22.5 66.5t-3 37.5zM315 1323q0 -72 46.5 -114t107.5 -42q63 0 108.5 43t47.5 113q0 74 -48.5 114t-107.5 40q-66 0 -110 -43t-44 -111zM389 1325q0 29 20.5 53.5t61.5 24.5q37 0 57.5 -21.5t22.5 -54.5q2 -41 -24.5 -62.5 t-55.5 -21.5q-33 0 -57.5 22.5t-24.5 59.5z" />
<glyph unicode="&#x153;" d="M109 299q0 -78 18 -137.5t76 -106.5q37 -29 101.5 -54.5t189.5 -25.5q72 0 129 9.5t99 20.5t68.5 23.5t38.5 18.5q29 18 46.5 37.5t25.5 44.5t11 55.5t3 69.5v768q-2 23 -11 31t-34 8h-32h-37q-16 0 -28.5 -1t-14.5 -1q-16 -4 -20.5 -14.5t-4.5 -26.5v-701 q0 -37 -3 -75.5t-23.5 -70.5t-62.5 -52.5t-122 -20.5q-84 0 -130 24.5t-67.5 61.5t-26.5 79t-5 79v680q0 27 -9.5 33t-31.5 6h-107q-23 0 -29.5 -8.5t-6.5 -28.5v-725zM469 1219q0 -25 13.5 -36.5t25.5 -11.5q10 0 18.5 5.5t16.5 9.5l199 141q12 10 24.5 26.5t12.5 49.5 q0 29 -15.5 51.5t-40.5 22.5q-16 0 -29.5 -10.5t-23.5 -20.5l-180 -182q-14 -14 -17.5 -25.5t-3.5 -19.5z" />
<glyph unicode="&#x178;" d="M109 299q0 -78 18 -137.5t76 -106.5q37 -29 101.5 -54.5t189.5 -25.5q72 0 129 9.5t99 20.5t68.5 23.5t38.5 18.5q29 18 46.5 37.5t25.5 44.5t11 55.5t3 69.5v768q-2 23 -11 31t-34 8h-32h-37q-16 0 -28.5 -1t-14.5 -1q-16 -4 -20.5 -14.5t-4.5 -26.5v-701 q0 -37 -3 -75.5t-23.5 -70.5t-62.5 -52.5t-122 -20.5q-84 0 -130 24.5t-67.5 61.5t-26.5 79t-5 79v680q0 27 -9.5 33t-31.5 6h-107q-23 0 -29.5 -8.5t-6.5 -28.5v-725zM207 1358q0 -49 34 -81t81 -32q49 0 79.5 33t30.5 82t-31.5 79.5t-78.5 30.5q-45 0 -80 -29.5t-35 -82.5 zM570 1358q0 -49 32.5 -81t79.5 -32q49 0 81 33t32 82t-33 79.5t-80 30.5q-45 0 -78.5 -29.5t-33.5 -82.5z" />
<glyph unicode="&#x2c6;" horiz-adv-x="894" d="M55 254q0 -104 48.5 -160.5t110.5 -83t120.5 -31t79.5 -4.5q33 0 71.5 3.5t76.5 9.5t75 17t65 26q57 31 71.5 72.5t17.5 111.5v543q0 41 -6.5 97t-35 107.5t-90 87t-174.5 35.5q-82 0 -150.5 -20.5t-117.5 -55t-76.5 -77.5t-27.5 -90q0 -49 29.5 -67.5t52.5 -18.5 q47 0 64 29.5t28 58.5q6 16 17 38.5t30.5 43t49.5 36t75 15.5q57 0 89 -22.5t46 -56.5t16 -72t2 -68v-105q-123 -37 -225 -70.5t-176 -76.5t-115 -103.5t-41 -148.5zM198 1403q0 -33 13.5 -49.5t25.5 -26.5l199 -141q8 -4 16 -9.5t19 -5.5q12 0 24.5 11.5t12.5 36.5 q0 8 -3.5 19t-17.5 26l-178 182q-10 10 -23.5 20.5t-29.5 10.5q-25 0 -41.5 -22.5t-16.5 -51.5zM242 281q0 59 26.5 99t74.5 70.5t116.5 55t152.5 51.5v-321q0 -20 -3 -46t-18.5 -49.5t-48 -39t-91.5 -15.5q-78 0 -121 27.5t-62.5 63.5t-22.5 66.5t-3 37.5z" />
<glyph unicode="&#x2dc;" horiz-adv-x="1067" d="M66 528q0 -102 29.5 -201.5t89 -177t147.5 -126t205 -48.5q115 0 201.5 49.5t146 129t89 180.5t27.5 203q-2 90 -29.5 186t-85 177t-144.5 133t-207 52q-111 0 -199 -47t-147.5 -123.5t-91 -177t-31.5 -209.5zM256 557q0 92 18.5 168t53 130t84 85t110.5 31 q51 0 100.5 -25.5t89.5 -78t65.5 -131.5t29.5 -185t-14.5 -189t-54.5 -141.5t-86 -89.5t-107 -31q-55 0 -107.5 31t-92.5 90.5t-64.5 144.5t-24.5 191zM262 1403q0 -33 13.5 -49.5t25.5 -26.5l199 -141q8 -4 16 -9.5t19 -5.5q12 0 24.5 11.5t12.5 36.5q0 8 -3.5 19t-17.5 26 l-178 182q-10 10 -23.5 20.5t-29.5 10.5q-25 0 -41.5 -22.5t-16.5 -51.5z" />
<glyph unicode="&#x2000;" horiz-adv-x="946" />
<glyph unicode="&#x2001;" horiz-adv-x="1892" />
<glyph unicode="&#x2002;" horiz-adv-x="946" />
<glyph unicode="&#x2003;" horiz-adv-x="1892" />
<glyph unicode="&#x2004;" horiz-adv-x="630" />
<glyph unicode="&#x2005;" horiz-adv-x="473" />
<glyph unicode="&#x2006;" horiz-adv-x="315" />
<glyph unicode="&#x2007;" horiz-adv-x="315" />
<glyph unicode="&#x2008;" horiz-adv-x="236" />
<glyph unicode="&#x2009;" horiz-adv-x="378" />
<glyph unicode="&#x200a;" horiz-adv-x="105" />
<glyph unicode="&#x2010;" horiz-adv-x="641" d="M117 535q0 -23 7 -30t28 -7h337q31 0 33 22v92q0 20 -8 25.5t-29 5.5h-333q-10 0 -19.5 -3t-13.5 -17q0 -2 -1 -12.5t-1 -24.5v-27v-24z" />
<glyph unicode="&#x2011;" horiz-adv-x="641" d="M117 535q0 -23 7 -30t28 -7h337q31 0 33 22v92q0 20 -8 25.5t-29 5.5h-333q-10 0 -19.5 -3t-13.5 -17q0 -2 -1 -12.5t-1 -24.5v-27v-24z" />
<glyph unicode="&#x2012;" horiz-adv-x="641" d="M117 535q0 -23 7 -30t28 -7h337q31 0 33 22v92q0 20 -8 25.5t-29 5.5h-333q-10 0 -19.5 -3t-13.5 -17q0 -2 -1 -12.5t-1 -24.5v-27v-24z" />
<glyph unicode="&#x2013;" horiz-adv-x="1067" d="M121 39q0 -27 8 -34t31 -5h100q23 0 33 6t10 35v756q0 18 4 50t24.5 60.5t65.5 50t127 21.5q90 0 138.5 -25.5t71 -63.5t26.5 -81t4 -80v-688q0 -29 10 -35t35 -6h113q16 4 20 15.5t4 25.5v707q0 45 -6 103t-43 110.5t-117 88t-225 35.5q-8 0 -45 -1t-88 -8t-109.5 -21.5 t-109.5 -40.5q-53 -27 -67.5 -58.5t-14.5 -91.5v-825zM226 1260q0 -23 11 -32t22 -9q16 0 24 9t19 27q12 18 33.5 40t70.5 22q35 0 63.5 -16.5t81.5 -57.5q16 -12 44 -25.5t71 -13.5q47 0 81 21.5t55.5 50.5t31.5 59.5t10 50.5q0 23 -9 32t-19 9q-14 0 -20.5 -7t-18.5 -25 q-16 -25 -38 -45.5t-63 -20.5q-35 0 -60.5 13.5t-74.5 48.5q-33 23 -61.5 37t-67.5 14q-49 0 -84 -21.5t-57.5 -51.5t-33.5 -60.5t-11 -48.5z" />
<glyph unicode="&#x2014;" horiz-adv-x="1067" d="M66 528q0 -102 29.5 -201.5t89 -177t147.5 -126t205 -48.5q115 0 201.5 49.5t146 129t89 180.5t27.5 203q-2 90 -29.5 186t-85 177t-144.5 133t-207 52q-111 0 -199 -47t-147.5 -123.5t-91 -177t-31.5 -209.5zM256 557q0 92 18.5 168t53 130t84 85t110.5 31 q51 0 100.5 -25.5t89.5 -78t65.5 -131.5t29.5 -185t-14.5 -189t-54.5 -141.5t-86 -89.5t-107 -31q-55 0 -107.5 31t-92.5 90.5t-64.5 144.5t-24.5 191zM491 1219q0 -25 13.5 -36.5t25.5 -11.5q10 0 18.5 5.5t16.5 9.5l199 141q12 10 24.5 26.5t12.5 49.5q0 29 -15.5 51.5 t-40.5 22.5q-16 0 -29.5 -10.5t-23.5 -20.5l-180 -182q-14 -14 -17.5 -25.5t-3.5 -19.5z" />
<glyph unicode="&#x2018;" horiz-adv-x="980" d="M66 528q0 -72 12 -154.5t53 -160.5q35 -70 81 -116t97 -73.5t104.5 -38t98.5 -10.5q121 0 200 48.5t125 111t65.5 120.5t19.5 79q0 33 -15.5 41t-25.5 8q-18 0 -27.5 -11.5t-32.5 -47.5q-51 -84 -120.5 -132.5t-161.5 -48.5q-57 0 -112.5 26t-98.5 77t-72 131t-35 186 l627 92q18 4 38.5 13.5t20.5 52.5q0 31 -16.5 92t-59.5 121.5t-119.5 105.5t-197.5 45q-94 0 -161.5 -29.5t-113.5 -67.5t-71 -76t-33 -54q-31 -57 -50 -138t-19 -192zM215 1358q0 -49 34 -81t81 -32q49 0 79.5 33t30.5 82t-31.5 79.5t-78.5 30.5q-45 0 -80 -29.5t-35 -82.5 zM221 664q16 135 81 220t190 85q88 0 148 -65.5t71 -164.5zM578 1358q0 -49 32.5 -81t79.5 -32q49 0 81 33t32 82t-33 79.5t-80 30.5q-45 0 -78.5 -29.5t-33.5 -82.5z" />
<glyph unicode="&#x2019;" horiz-adv-x="425" d="M121 39q0 -23 4 -31t27 -8h110q23 0 32 5t9 34v983q0 25 -8 32t-33 7h-106q-27 0 -31 -9.5t-4 -29.5v-983zM170 1219q0 -25 13.5 -36.5t25.5 -11.5q10 0 18.5 5.5t16.5 9.5l199 141q12 10 24.5 26.5t12.5 49.5q0 29 -15.5 51.5t-40.5 22.5q-16 0 -29.5 -10.5t-23.5 -20.5 l-180 -182q-14 -14 -17.5 -25.5t-3.5 -19.5z" />
<glyph unicode="&#x201a;" horiz-adv-x="1236" d="M72 733q0 -111 27.5 -234.5t93 -232t174 -187.5t272.5 -104l-16 -141q-4 -25 6 -32t33 -9q14 0 32.5 -3t34.5 -10t27.5 -21.5t11.5 -39.5q0 -47 -36 -68.5t-83 -21.5q-33 0 -54.5 3t-37.5 8q-23 6 -30 8t-11 2q-20 0 -25.5 -12.5t-5.5 -18.5q0 -18 21.5 -31.5t50.5 -22.5 t59.5 -13.5t51.5 -4.5q102 0 161.5 53.5t59.5 120.5q0 25 -11.5 51.5t-34 47t-57 32t-81.5 9.5l24 108q113 0 198 27t142 62.5t86 73.5t29 63q0 23 -14.5 36t-30.5 13t-29.5 -8.5t-40.5 -24.5q-68 -45 -137.5 -69.5t-151.5 -24.5q-109 0 -200 50t-156.5 138t-102 210 t-36.5 263q0 133 33.5 238.5t91 180.5t136.5 115t167 40q70 0 121 -22.5t86.5 -53.5t58 -61.5t33.5 -47.5q16 -27 36.5 -49t61.5 -22q39 0 66.5 25.5t27.5 68.5q0 41 -31.5 90t-91 93t-147.5 74t-203 30q-178 0 -303 -68t-205 -174.5t-115.5 -238.5t-35.5 -263z" />
<glyph unicode="&#x201c;" horiz-adv-x="425" d="M-58 1403q0 -33 13.5 -49.5t25.5 -26.5l199 -141q8 -4 16 -9.5t19 -5.5q12 0 24.5 11.5t12.5 36.5q0 8 -3.5 19t-17.5 26l-178 182q-10 10 -23.5 20.5t-29.5 10.5q-25 0 -41.5 -22.5t-16.5 -51.5zM121 39q0 -23 4 -31t27 -8h110q23 0 32 5t9 34v983q0 25 -8 32t-33 7 h-106q-27 0 -31 -9.5t-4 -29.5v-983z" />
<glyph unicode="&#x201d;" horiz-adv-x="425" d="M-69 1192q0 -16 9 -24.5t19 -8.5q12 0 35 19l150 102q10 8 24 16.5t31 8.5q14 0 26.5 -6.5t26.5 -14.5l166 -106q8 -4 16.5 -9.5t16.5 -5.5q10 0 19 10.5t9 24.5q0 16 -8 25.5t-47 42.5q-74 59 -111.5 98t-72.5 74q-6 8 -16.5 17t-26.5 9t-24.5 -9t-24.5 -32 q-37 -47 -81 -88t-102 -90q-18 -16 -26 -26.5t-8 -26.5zM121 39q0 -23 4 -31t27 -8h110q23 0 32 5t9 34v983q0 25 -8 32t-33 7h-106q-27 0 -31 -9.5t-4 -29.5v-983z" />
<glyph unicode="&#x201e;" horiz-adv-x="1409" d="M137 39q0 -23 6.5 -31t28.5 -8h64q39 0 43 2q12 2 15 11.5t3 25.5v1124l817 -1134q14 -16 21.5 -21.5t23.5 -7.5h78q20 0 27.5 5t7.5 32v1372q0 23 -5 30t-26 7h-106q-20 -4 -21 -39v-1059l-770 1067q-16 23 -22.5 27t-26.5 4h-119q-25 0 -32 -7t-7 -32v-1368zM393 1622 q0 -43 33 -43q14 0 23.5 10t39.5 53q16 16 34 28.5t55 12.5q31 0 53 -11t69 -44q43 -29 76 -45t82 -16q55 0 92 22.5t59.5 53t32 63.5t9.5 53q0 16 -8.5 27.5t-24.5 11.5q-12 0 -20.5 -9t-34.5 -46q-16 -18 -34 -32.5t-57 -14.5q-37 0 -65.5 14t-69.5 43q-35 25 -66.5 41 t-78.5 16q-55 0 -94 -23.5t-61.5 -54t-33 -62.5t-10.5 -48z" />
<glyph unicode="&#x2022;" horiz-adv-x="425" d="M-84 1358q0 -49 34 -81t81 -32q49 0 79.5 33t30.5 82t-31.5 79.5t-78.5 30.5q-45 0 -80 -29.5t-35 -82.5zM121 39q0 -23 4 -31t27 -8h110q23 0 32 5t9 34v983q0 25 -8 32t-33 7h-106q-27 0 -31 -9.5t-4 -29.5v-983zM279 1358q0 -49 32.5 -81t79.5 -32q49 0 81 33t32 82 t-33 79.5t-80 30.5q-45 0 -78.5 -29.5t-33.5 -82.5z" />
<glyph unicode="&#x2026;" horiz-adv-x="1449" d="M72 723q0 -168 50 -306t138 -237.5t208 -155t261 -55.5q147 0 269 61.5t209 169t133 253t38 313.5q-6 133 -49 261t-124 228.5t-198.5 162t-275.5 61.5q-170 0 -295 -66.5t-205.5 -174.5t-119.5 -243t-39 -272zM285 735q0 88 12 173t42 159t78 135.5t118 102.5 q90 51 188 51q57 0 132 -25.5t142.5 -91t115.5 -181.5t52 -298q0 -43 -1 -97.5t-11 -116t-30.5 -124t-57.5 -119.5q-66 -102 -158 -149.5t-180 -47.5q-70 0 -136.5 27t-122.5 79t-99 129t-64 179q-20 94 -20 215zM426 1718q0 -57 37 -85.5t82 -28.5q61 0 89 38.5t28 79.5 q0 55 -37 84t-78 29q-45 0 -83 -30.5t-38 -86.5zM801 1718q0 -57 36.5 -85.5t82.5 -28.5q59 0 87.5 38.5t28.5 79.5q0 55 -36.5 84t-77.5 29q-45 0 -83 -30.5t-38 -86.5z" />
<glyph unicode="&#x202f;" horiz-adv-x="378" />
<glyph unicode="&#x2039;" horiz-adv-x="894" d="M55 254q0 -104 48.5 -160.5t110.5 -83t120.5 -31t79.5 -4.5q33 0 71.5 3.5t76.5 9.5t75 17t65 26q57 31 71.5 72.5t17.5 111.5v543q0 41 -6.5 97t-35 107.5t-90 87t-174.5 35.5q-82 0 -150.5 -20.5t-117.5 -55t-76.5 -77.5t-27.5 -90q0 -49 29.5 -67.5t52.5 -18.5 q47 0 64 29.5t28 58.5q6 16 17 38.5t30.5 43t49.5 36t75 15.5q57 0 89 -22.5t46 -56.5t16 -72t2 -68v-105q-123 -37 -225 -70.5t-176 -76.5t-115 -103.5t-41 -148.5zM162 1260q0 -23 11 -32t22 -9q16 0 24 9t19 27q12 18 33.5 40t70.5 22q35 0 63.5 -16.5t81.5 -57.5 q16 -12 44 -25.5t71 -13.5q47 0 81 21.5t55.5 50.5t31.5 59.5t10 50.5q0 23 -9 32t-19 9q-14 0 -20.5 -7t-18.5 -25q-16 -25 -38 -45.5t-63 -20.5q-35 0 -60.5 13.5t-74.5 48.5q-33 23 -61.5 37t-67.5 14q-49 0 -84 -21.5t-57.5 -51.5t-33.5 -60.5t-11 -48.5zM242 281 q0 59 26.5 99t74.5 70.5t116.5 55t152.5 51.5v-321q0 -20 -3 -46t-18.5 -49.5t-48 -39t-91.5 -15.5q-78 0 -121 27.5t-62.5 63.5t-22.5 66.5t-3 37.5z" />
<glyph unicode="&#x203a;" horiz-adv-x="1067" d="M66 528q0 -102 29.5 -201.5t89 -177t147.5 -126t205 -48.5q115 0 201.5 49.5t146 129t89 180.5t27.5 203q-2 90 -29.5 186t-85 177t-144.5 133t-207 52q-111 0 -199 -47t-147.5 -123.5t-91 -177t-31.5 -209.5zM226 1260q0 -23 11 -32t22 -9q16 0 24 9t19 27 q12 18 33.5 40t70.5 22q35 0 63.5 -16.5t81.5 -57.5q16 -12 44 -25.5t71 -13.5q47 0 81 21.5t55.5 50.5t31.5 59.5t10 50.5q0 23 -9 32t-19 9q-14 0 -20.5 -7t-18.5 -25q-16 -25 -38 -45.5t-63 -20.5q-35 0 -60.5 13.5t-74.5 48.5q-33 23 -61.5 37t-67.5 14q-49 0 -84 -21.5 t-57.5 -51.5t-33.5 -60.5t-11 -48.5zM256 557q0 92 18.5 168t53 130t84 85t110.5 31q51 0 100.5 -25.5t89.5 -78t65.5 -131.5t29.5 -185t-14.5 -189t-54.5 -141.5t-86 -89.5t-107 -31q-55 0 -107.5 31t-92.5 90.5t-64.5 144.5t-24.5 191z" />
<glyph unicode="&#x205f;" horiz-adv-x="473" />
<glyph unicode="&#x2122;" horiz-adv-x="1067" d="M66 528q0 -102 29.5 -201.5t89 -177t147.5 -126t205 -48.5q115 0 201.5 49.5t146 129t89 180.5t27.5 203q-2 90 -29.5 186t-85 177t-144.5 133t-207 52q-111 0 -199 -47t-147.5 -123.5t-91 -177t-31.5 -209.5zM250 1192q0 -16 9 -24.5t19 -8.5q12 0 35 19l150 102 q10 8 24 16.5t31 8.5q14 0 26.5 -6.5t26.5 -14.5l166 -106q8 -4 16.5 -9.5t16.5 -5.5q10 0 19 10.5t9 24.5q0 16 -8 25.5t-47 42.5q-74 59 -111.5 98t-72.5 74q-6 8 -16.5 17t-26.5 9t-24.5 -9t-24.5 -32q-37 -47 -81 -88t-102 -90q-18 -16 -26 -26.5t-8 -26.5zM256 557 q0 92 18.5 168t53 130t84 85t110.5 31q51 0 100.5 -25.5t89.5 -78t65.5 -131.5t29.5 -185t-14.5 -189t-54.5 -141.5t-86 -89.5t-107 -31q-55 0 -107.5 31t-92.5 90.5t-64.5 144.5t-24.5 191z" />
<glyph unicode="&#xe000;" horiz-adv-x="1064" d="M0 0v1065h1065v-1065h-1065z" />
</font>
</defs>
</svg>
